/* XPM */
static char *_99f9a4c39bb4286e44415e7f3743461tggs1ZJJRSfefQ2Y[] = {
/* columns rows colors chars-per-pixel */
"64 64 40 1 ",
"  c #171F07",
". c #252F10",
"X c #364132",
"o c #656D6B",
"O c #7E7B7B",
"+ c #807E7E",
"@ c #817F7F",
"# c #838282",
"$ c #848383",
"% c #878383",
"& c #858484",
"* c #878484",
"= c #868585",
"- c #898585",
"; c #888787",
": c #898787",
"> c #8B8787",
", c #8B8A8A",
"< c #8D8989",
"1 c #8C8B8B",
"2 c gray55",
"3 c #8F8E8E",
"4 c gray56",
"5 c #908D8D",
"6 c #918D8D",
"7 c #908E8E",
"8 c #938F8F",
"9 c #929090",
"0 c #949090",
"q c #959393",
"w c #969393",
"e c #959595",
"r c #969494",
"t c #989595",
"y c #9B9797",
"u c #999A9A",
"i c #9D9A9A",
"p c #9E9C9C",
"a c #A09D9D",
"s c gray80",
/* pixels */
"rr9977717713,,,,3,3999rrreue0t003,,*,,,,7790rrr999771111:1::$$@@",
"rr9977771733,,,,,377999reer9tt90,,,,,*,277r90r099977111111::%$@@",
"997711::::::%$$$::13333344447732;;;;:12:3790re7933333131>1%:$$@@",
"997731:,::::*%:$::11443344447733,;;;,:1179099r93633313,711::%%O@",
"3311,:**#==***;*:11131112,,222331::11171980r0r0r788t809967>:$$@@",
"1311,:**=*$***;*::173313,,,,3233111:111177rrrrr00wt0009967:>$$@@",
",1::****=#=#=#==%:1:11,,,,,333,37376,6767790rrttttttrr0r1711::@@",
"11::****###=*=*=:::131,,,,3,,33,33,6717,33r9r0ttutttrrr9771>:>@$",
"71::$$$%=#######%:*2,;,:,,3133337777333,3709r0uttu0t98,6117>>>:%",
"11::%%$$#=######%%:*,,11,,,,3337777737,370990rtttttr087717116>::",
"77:1%%%$####@#O=%:::$:1$,,,3,377798799999r0rr0trt090771:::>:11>:",
"78:1%%$$#=###O=@%$:%$::,,,3,2,7797909999r9r9rr0trr0011:::::>11:>",
"771:::::%%$@#O==$%::::::,,313171009r9r9r9r9rrr0t099711:::$:$::%:",
"771::::::%@$@=##:$:%::::,,77777709r9r9r9r9r0rrrt007711::$:%:::::",
"371111,,:::$:$*$$:$:::>1:177701300r09r9r9709rrt00t97161>:%:$:%$$",
"367>11:1::$:$,#::%::1:1>11777773r9rr999979000rrt007961>>$:%$$:$$",
"773177171111:>::::1:1>116,778033900077163399tttttt007777%>%:%:@$",
"77371761>1>11>:::$>>1116117799370008771779090ttttt0r77>1>>:$:%$@",
"007787777717>1>1:11171617177777177877771770rtiytttrr00776616::@$",
"0977787777711>:>::1116,617877773337777777799ittiutrr77776111:>$@",
"8877770909777111,333777716161111,117777779ttuytttt0ttrrr007011%$",
"0077709900771111,37978777161>1>1::71777799tryuiuttttrrr000981>%$",
"007777970088773737909087171:::>:%:>>3399r0utiuiiiirtutuitt8871>:",
"0977777008887799799r007771:>%:>>:%>>333900utiiuiiititiirtt88771>",
"97336677880t999909rr9097,,**:%:%%:%::176r0utpipiiaaiiitiur0071,,",
"9933677788t89r9900r09 37,,,*$:%::$:$1>6600ttiiipiiiiiiiiut0033:,",
"773,17779770990909r  u 3#,#::%**::%:%:6:79wwitpipaaaaaiitt7777::",
"17,3667779999990r  ..uo  *,#%$**:%%%>%6107w0yiipapaaaititt7017::",
"77,,37611177780r .X.Xuooo   ##*O%%$ %%>>1768wwiypppaaaiitu0077>:",
"78377711111707  .XXXuoXX....       X %>:7787twiippapiaiitt00771>",
"0r97331:1:177  .XXXXoooXXX.   ...XXu  :>1177wtyutiiutiyttt8066>>",
"0t793,1111     XXX..ooXX..  .XXXXXXu.  :1777t0utiiiiiititt8817:1",
"0r07997717     .....oXX.   .XXXXXouu..   1880wtt00tr0t08tttr0r,,",
"r07799876 .   ......oX.. ......XouuooXX.  87ww0ttrt0tt0t00rr90,,",
"907 9988  ..  ......XX. .......ooo..         07970970000t0r0003,",
"00 o     .... ......XX  ......Xoo.   ..XXX... 0777700008rrrr09 ,",
"77 oooX...... ......XX  .....XXo.   .XXXoouuX. 171166177799909 3",
"77 .oooXX....  .... XX  ... .XXX    .XXXXXouuo. :1771687999909  ",
"00 .XXooooXXX. .... XX  ... .XX.    ....XXXouuuo  1>>11133779 X ",
"00 .XX.X....XX ...  XX .... .XX     ......XXXXXX.       3,349 o ",
"09 .X........X ...  XX ...  .X.     XXX.....      .XXXX. 3317 u ",
"908 X........X  ..  XX ...  XX.    XXoooX.     .oooouuuoX ,, .u ",
"0r0 .........X.     .X      XX     .XooooX   .XoX...XX.X. ,3 ou ",
"r07 .........XX     .X     .X.     .XXoooX  .Xo....Xouo.  ,3 uu ",
"rt0  ....... XX.   ..X     .X      ..XXXXX  XoX....XXuo  31 .u. ",
"00    ......  X. X..XX    .XX       ..XXX. .Xo...oooXXuo   .oo :",
"t  .. .....   XX X..XX ....X    ...   ...  .XX..oXooXXoo  .Xo. :",
" .....        .X. X.X. ....X  .... ..      .XX .oXXXXoo  .XX. :*",
"0 .....      ..XX XX. .....X .X..  ..   .  .XX .XoXXooX...XX. ,:",
"0  ....     ....X    .X...X  .XX  ...  ..   XX. XXoooXXXXXX.  ::",
"70 ...     X...XX     XXXX   ..  .X.. ... . .XX.  XXXXoooooo ,**",
"07  .    .  XXXX.                XX.. X.. .  .XXX ..Xoo    o 3**",
"77      ..X                       XXX XXX ..  .XXXXXX  .us  ,,*#",
"77 .   ..XX                                     ..XX   Xuu 8,,#=",
"87 ..  XXX.     ..       .. 1::>       .. 008        . XXX 72,#*",
"7 ....         ..       XX  :11::   :  .X 0788   trt ..  . 7:,=#",
"66 ..  .X  7   . 0r    X. :1::::>   :> X. 7:77   rrr       111%$",
"17>    .X ,677 X 8r   XX >::::::>:  >: X 11677   r00r X  X 77>%$",
"77> .  .  7608 X tt   X 11:::%::::  :: X 11688   97973 97 7111%$",
"7>> ...  >7608 X tt   X 11::%:::::  :: X ,6177   9997799871711%%",
">>%% .  677809 X yy   X 7811::::%:  %: X 11777   33309007811:>::",
"%>%%@  :678800 X uy   X 77>6%:%::%  :% X 171877  933870r0811>:%:",
"@@@@OO$%,17>>17 0t0 8  1>1>>%::%$:$ $$  $%::1:1 1:,2717711%%$$@@",
"@@@@O@%%1:1>717708t888661>>::$:::$@$$$%$:$%:>::1:,,,113711%%$$@@"
};
