/* XPM */
static char *_d0556a3466b4425d4d508b813fcc7f5waTCdADZJfIwAdtI[] = {
/* columns rows colors chars-per-pixel */
"64 64 37 1 ",
"  c black",
". c #7E7B7B",
"X c #D0262B",
"o c #807E7E",
"O c #817F7F",
"+ c #36AB2B",
"@ c #818080",
"# c #838080",
"$ c #838282",
"% c #858484",
"& c #878484",
"* c #878686",
"= c #888585",
"- c #898787",
"; c #8A8686",
": c #8B8787",
"> c #8B8A8A",
", c #8D8989",
"< c #8C8B8B",
"1 c gray55",
"2 c #8F8E8E",
"3 c gray56",
"4 c #908C8C",
"5 c #918D8D",
"6 c #908E8E",
"7 c #938F8F",
"8 c #929090",
"9 c #949090",
"0 c #959393",
"q c #969292",
"w c #969494",
"e c #989595",
"r c #9A9898",
"t c #9C9999",
"y c #A09D9D",
"u c #B1B0AE",
"i c #FAE7E8",
/* pixels */
"ww88666<6622>>>>uuuuuuuuuuuuuuuuuuuuuuuuuuuuww9w8822>2>><<--O-OO",
"ww8866662622>>>>uuuuuuuuuuuuuuuuuuuuuuuuuuuu8ww88866>>>>-<--&OOO",
"8866<<-----&&%#&uuiiiiXXiiXXiiXXiiXXiiiiiiuuw88866222222<:--O&OO",
"88662<->--&-%&&&uuiiiiXXiiXXiiXXiiXXiiiiiiuu8w8866>2>2>2<<--&OoO",
"22<<>-&&%%&%&%*&uuiiXXXXXXiiXXXXiiXXXXiiXXuuwww979w99w8846--&&.O",
"<2<<>-&&%%%&%&&*uuiiXXXXXXiiXXXXiiXXXXiiXXuu9w9wq99w998866--&&.#",
"><--&&&&%%%%&%&%uuiiiiXXiiXXiiXXiiXXXXiiXXuuwweeeeewww9866>1&>##",
"<<--&&&&#&%%%&%&uuiiiiXXiiXXiiXXiiXXXXiiXXuu9wwwetweww9w6611&&#%",
"21>*&&&&%%$$$$$$uuuuuuuuuuuuuuuuuuuuuuuuuuuuw9twwt9e89<2<<<4::--",
"13&&#&##$%$$$$$$uuuuuuuuuuuuuuuuuuuuuuuuuuuu9wwteeew99624<<<:4--",
"221>&&#-%$$$.$$$&&&-&&>&<<6<223338888888w899w9ewee8922>----:<<-:",
"86&>%&-#$%$$%$$.&#-->&&1>><>>222888888888w8wwwwwe999<<------<<:-",
"66>----&&&#%uuuuuuuuuuuuuuuuuuuuuuuuuuuuuuuuuuuuuu66>>--*&&&-&-&",
"66->----&&%#uuuuuuuuuuuuuuuuuuuuuuuuuuuuuuuuuuuuuu662>--&&&&--&-",
"22<<>1>>&>&&uu                    ++++++++++++++uu69>2>>*&&&&&&O",
"246<11*>>&&&uu                    ++++++++++++++uu96>2>1&*&&&&&&",
"6664664<<:<>uu                    ++++++++++++++uu996644-:&---OO",
"86<62<<4<<<<uu                    ++++++++++++++uu9w66-<:---&&OO",
"8966966666<6uu                    ++++++++++++++uuew986644<4-:OO",
"98666667664<uu                    ++++++++++++++uu9w9663<4<<-4O&",
"966686988866uu                    ++++++++++++++uuwewwww9989<<OO",
"996668888866uu                    ++++++++++++++uuewwww89969<<O-",
"996666869998uu                    ++++++++++++++uutttttwte77664<",
"986666699989uu                    ++++++++++++++uutweettee77<6--",
"86624677779euu                    ++++++++++++++uuytytttee9822>>",
"8822646677e6uu                    ++++++++++++++uutytttttw89221&",
"<62>46666888uu                    ++++++++++++++uuyyyyttwe88<6--",
"66<264648688uu                    ++++++++++++++uuyyytttee8666--",
"66<<66<<<<66uu                    ++++++++++++++uuyytyttet9964:-",
"66<666<<<<<6uu                    ++++++++++++++uuytyytyee9946-<",
"9986<6<<<-<6uu                    ++++++++++++++uutteteeee9964::",
"ew886<<<<<4<uu                    ++++++++++++++uuttttttee7746-<",
"9w868888<4:<uu                    ++++++++++++++uuww9e9e99ww89<>",
"w9668868444<uu                    ++++++++++++++uuwweee7eeww98>>",
"9966889966<6uu                    ++++++++++++++uu8899979w9w992>",
"9966889976<6uu                    ++++++++++++++uu969997wwww99>>",
"666676997766uu                    &&>&++++++++++uu6<46666888992>",
"664477994776uu                    &&&&++++++++++uu<<6<768688w8>>",
"776766689977uu                    uuuuuu++++++++uu>><:<<22668622",
"774466989999uu                    uuuuuu++++++++uu>><<4<2>22822>",
"996764668699uu                    &&&*++++++++++uu::-2212><226-<",
"997666666799uu                    &&*&++++++++++uu<->>>222<2<6>-",
"999846646696uu                    ++++++++++++++uu<<<688662>>2&&",
"9w9966<67669uu                    ++++++++++++++uu<<643366<212&&",
"e79966446666uu                    ++++++++++++++uu7788ww22>2>>&&",
"ee9967<46666uu                    ++++++++++++++uu7698882221>>&&",
"7q797744<468uu                    ++++++++++++++uue7w928111111&&",
"qq77664:6696uu                    ++++++++++++++uuww9992>211>1**",
"9999664<6<69uu                    ++++++++++++++uuw99w8822<4><--",
"99e966<4<496uu                    ++++++++++++++uuww9w382>44>---",
"69696<2<6468uu                    ++++++++++++++uuww99882866<<-O",
"96966<226678uu                    ++++++++++++++uuww98882666:<--",
"6644<<228889uu                    ++++++++++++++uuewww887766<:O-",
"6644<4268899uu                    ++++++++++++++uuwew8889766<<OO",
"97<<4<646688uu                    ++++++++++++++uuewww8we766<<:&",
"66:4<4666688uu                    ++++++++++++++uuwe8ww89964<<&&",
"64<:<4<:<<64uu                    ++++++++++++++uuwww8w8986<<<-O",
"46::4<<<<<6<uu                    ++++++++++++++uuw98w8w89<<4-:O",
"44:::::&-<<4uu                    ++++++++++++++uu688688886<<<O:",
"44:::-O&<:64uu                    ++++++++++++++uu88668888<6<<:O",
"&-&OOO4-4667uu                    ++++++++++++++uu22699866<2-:--",
"::&&Oo--6677uu                    ++++++++++++++uu22769w96<<:---",
"OOOO..&O<<<<uu                    ++++++++++++++uu>><466<<&&O&OO",
"OOOO.o--<:<<uu                    ++++++++++++++uu<>6<66<<&&&OOO"
};
