/* XPM */
static char *_4ae948d7c534aead71279d134ebe30a7kCJgvFrCtUIOat6[] = {
/* columns rows colors chars-per-pixel */
"64 64 32 1 ",
"  c #7E7B7B",
". c #817F7F",
"X c #818080",
"o c #838282",
"O c #848181",
"+ c #878383",
"@ c #858484",
"# c #878484",
"$ c #878686",
"% c #898787",
"& c #8B8A8A",
"* c #8D8989",
"= c #8C8B8B",
"- c gray55",
"; c #8F8E8E",
": c gray56",
"> c #908C8C",
", c #918D8D",
"< c #908E8E",
"1 c #938F8F",
"2 c #929090",
"3 c #949191",
"4 c #959494",
"5 c #959595",
"6 c #969494",
"7 c #979494",
"8 c #989595",
"9 c #9B9797",
"0 c #9A9898",
"q c #9D9A9A",
"w c #9E9C9C",
"e c #A09D9D",
/* pixels */
"6622<<<=<<;;&&&&;&;2225265553832;&&#&&&&<<26663622<<&&&&==%%+%..",
"6622<<<<;<;;&&&&&;<<225666558823&&&&&#&&<<62623222<<;&;&==%%.+..",
"22<<==%%%%%+#@o#%%=;;;;;;:2:<<;-#-#-%&-&<<232622<<;;;&&<==+%++..",
"22<<;=%&%%+%@###%%==::;;;:2:<;;;&#$$&%==<<33622;><=;&;;<*%%%... ",
";;==&%##@@#@#@$#%&&=;;&-&&&---;;%======><338833333633322>>%%+# o",
"=;==&%##@@@#@##$%%=;&;--&&&&;-;;==%%====3<33366633383322<==&#o o",
"&=%%####@@@@#@#@+%&;-;&&&#::;;&;<;><<=>=<<32668888886633<<-&#%oo",
"==%%####o#@@@#@#%%%&-&--&&--&;;&;;<<=>=><<23638898836336<<&&%#oo",
";-#&o#+o@ooooooo#$$-&#-$&&=<;;;;<<<<;;==<<3<63888878<3;<==*=**+%",
"&&&##o++o@oooooo$#-#&&#&&&;=;;;<<<<<<<=;<3233308887832;;====**%%",
";<&&##o+@ooXX@oo######--&&&=&;<<<2<322222633363888<3;;&#%%***=%%",
"<2#&@#&oo@ooX oX###-##&#&&;&-&<<2<22222262636388833<>&&#%%%%==%*",
"<<;##&####ooo o++%+#%%%%&&===<<=336262262633863833<<&;#&$###%+%+",
"<<&&&#&###o@oooo++##%%%%&&><<<>;3232266262336663<3<<-&&##$##+%%%",
"<<&&&-&&###$##%++%%%%%*%==<<<3=;336626262<336388832<-;&&$#####++",
"<>==--&-#-$#####%%.%%==%==<<<<<;33363222<23<668633<3-:$-#$####o+",
"<<<><<=>=*=&%*%%%%*%=*===><3<3;;3233<<<><<3288888733<>>=*+%%++.+",
"3<<==<>===*&*%%%%+%*======<<31;<<3<3<<=<<<2238888773<<==%*%++%o+",
"23<<2<<<<<=>**%%%&==<>>==><<<<<=<<3<<<>=<<260008887331<<>>=>%%..",
"32<<<2<<<<>=%=%*%%==><=><=1<<<<;<<<<<<><<<62060088383<<<>===%%o+",
"31<<2<3212<<<===&;<<<<<<=<=<*===%===<<<<<28800008q68666333<<&*.+",
"11<<<22213<<====&;<2<<<<>=>==*===%=><<<<1286000088886663333<==+.",
"3<<<<<<33311<<<<;<2323<<=<=%%.%%%+**;;226308w0qqqq8000008833=;=%",
"33<<<<1<3311<<<<<232322<>=%%%%=%++*%;<<222000w0qq8q880008833<<%=",
"<2<<><<<13332622323633<<==+%##%+%.++==>>3688qqwqeqqqqqq88833<===",
"3<=;<><<33332222333333<<&%%.++%%%*+%==><3380qqqwqqeqqqqq8833=<=%",
"=<=<><<<<2122223266613=>+++%o%++%%++%%==<283q8wqweeeeq8q88<<<>%%",
"<<<=<><>22222262633631>=#=++%o+#+%++%+*>3<380qqweweeeeqq8822>==%",
"<<&&<<>===><<<626326;;%=&+####+o%+++++*%=><188q0wwweqeqq8813<>%%",
"3<;<<<====<<<1336663<<==#%#+@# o.%.+++*%>><<33qqwweweeqq8831><%=",
"362<<=======<<38222<&&%###oooo o+.+.++%%&=<<8600qqq0q8q88833><*%",
"33<2=>=====>3<3322;<&&#%o+oooooX.++.+.*%;<<<66q800qq9q8q8811<>%*",
"33<<<3<<>>====<<<1=<&%%%++.o...o+%#####%=*<<773833837337733833==",
"331133<<>>===<<<3<<<%%+++%+o..o+%.#+##%#==11718838387771778831&&",
"33<<2213><=>=<<<<<;===+*##+++++.++&%%%&%==3<13<<<33<7133383733==",
"33<<2233<<>=<=<23<<==%*%#&++++.+++&%%%&&=<<<33<1<<<31131337331*=",
"<1>>1<3311<<22333<<<>=>*--=%+%++.%%=&<=>>=<<<<=><==>>=<<<2223<;&",
"<<>>11331><1223313<1=>=>-&%%*+.+%%==&=<===1<<<>===>=<<1<2<2233&&",
"11<><<1113136633<3<<><><<>&=>***==<=3<<>>;<<<>=***%%====<=<<2<;=",
"31>11<<<31333663<<<<<><<=>=>*=****<<<<=;<<<<=<*=**=*=*==<=<<2<;=",
"1311>><<<313<3<2<<<<<<2<22<<<==*==<<2222<:22<>=*%*%*=&-;<==;<<%&",
"31<1><<<<131132<<<<<<3<222<<<====>=<23222222><***%*=*;&;;;=;=<%&",
"3331><<><<3<<2<<<=<<22332622>>=%==<<3<332622>=*=*%==&<2:<<;&-&%#",
"3331<<=<1<<11<<<=<<>22366322=>=*==<>11336222>=*=**==;>2;<<=;-;##",
"3731<<>><<<<<2<<;;<<33663332>>**==><<11322<<<<<><<112322;;&;&&##",
"7711<1=><<<32<<<;;<<32263322>>**=*<><13323<<>><<<<1<3362;;;-&&##",
"733311>>>=<322<2<<<<22231<=>**==>*><31<<22;2<333363333<2------##",
"7711<<>*<<<<22<<<<;<22621>>>=%===>>>1111222<3<333338333;&;--&-$$",
"1133<<>=>=<133<<<>>><<<<>>==%***=*=*<<<<222666668666622<<=>==%%%",
"1133<<=>=<3<33<3<<>=<=<>>==%%%%=*=*=<<11;262266666832622=;=>==%%",
"1111=<;;<<<<6333<<===>=>**%.%*%%*%%*==><2266666666663322<<<<*=%.",
"<<11<<==<><33333<<<<>===%=%*%%*%%%**=><<2266066666662222<2<<==%*",
"<1>=>=;;22223333<2<<><*=%%%%%=%*%%***%==<338666688602632332<=&.+",
"<<>>=>;<222663332<<<<>*=%%%%**%%%%*%%*==3<8366668666622233<<**+.",
"1<>*>=<<<<223222123311==%.%%%%=**%%**%%=><<333838660662633<<&&++",
"><>==><><<2223223<3311==%%%%%%*%%+*%%%===<<<33678086626233<<&&++",
">>*%>=*===<=1<33338623=>%%%=&#&$%%%%%%===*>=><336663626333>===.+",
"<>**======><<3<3333633<==&%##&#-+*%%%%**=>=><<33666626233<=>=>*.",
"=>***+.*=%><1383888833<>==#&&###%+%+%%*%===<<<13222<2<22<2;===.%",
">>+*%**.%=>=3338888833<>==&#&o-#+*%+%%*===>=1<3332<2<<222<;===++",
"+*.+..*+><11<18399997711><=>&######++%*%===><1<<;;;;3<36<<&-%%%%",
"*+++..**<><<33889999781<<<==#&&####+%+%===<=<<<<;;<=<3333;;-%=%+",
"....  +.==>*==<<333313><*%*%#$$$##o ++.%%++%=%%==%==>=;<==++++..",
"......++=**===><33833<>=***%##-$$#o++.*.+.%%%=*=%=====;<==+++..."
};
