/* XPM */
static char *result[] = {
/* columns rows colors chars-per-pixel */
"64 64 105 2 ",
"   c #632300",
".  c #663931",
"X  c #7E7B7B",
"o  c #8F563B",
"O  c #FF6500",
"+  c #807E7E",
"@  c #817F7F",
"#  c #5C877F",
"$  c #FF803B",
"%  c #D9A066",
"&  c #FFEE6C",
"*  c #818080",
"=  c #838080",
"-  c #828181",
";  c #838181",
":  c #838282",
">  c #848282",
",  c #848383",
"<  c #858383",
"1  c #868383",
"2  c #858484",
"3  c #868484",
"4  c #878484",
"5  c #868585",
"6  c #878585",
"7  c #878686",
"8  c #888585",
"9  c #888686",
"0  c #898686",
"q  c #888787",
"w  c #898787",
"e  c #8A8686",
"r  c #8A8787",
"t  c #8B8787",
"y  c #898888",
"u  c #8A8888",
"i  c #8B8888",
"p  c #8A8989",
"a  c #8B8989",
"s  c #8B8A8A",
"d  c #8B8B8B",
"f  c #8C8989",
"g  c #8D8989",
"h  c #8C8A8A",
"j  c #8D8A8A",
"k  c #8C8B8B",
"l  c #8D8B8B",
"z  c #8E8B8B",
"x  c #8F8B8B",
"c  c gray55",
"v  c #8D8C8C",
"b  c #8E8C8C",
"n  c #8F8C8C",
"m  c #8E8D8D",
"M  c #8F8D8D",
"N  c #8F8E8E",
"B  c gray56",
"V  c #908C8C",
"C  c #908D8D",
"Z  c #918D8D",
"A  c #908E8E",
"S  c #918E8E",
"D  c #908F8F",
"F  c #918F8F",
"G  c #928E8E",
"H  c #928F8F",
"J  c #938F8F",
"K  c #919090",
"L  c #929090",
"P  c #939090",
"I  c #929191",
"U  c #939191",
"Y  c #939292",
"T  c #949090",
"R  c #949191",
"E  c #959191",
"W  c #949292",
"Q  c #959292",
"!  c #959393",
"~  c #969292",
"^  c #969393",
"/  c #959494",
"(  c #959595",
")  c #969494",
"_  c #979494",
"`  c #969595",
"'  c #979595",
"]  c #989595",
"[  c #989696",
"{  c #999696",
"}  c #989797",
"|  c #999797",
" . c #9A9797",
".. c #9B9797",
"X. c #9A9898",
"o. c #9B9898",
"O. c #9C9999",
"+. c #9C9A9A",
"@. c #9D9A9A",
"#. c #9D9B9B",
"$. c #9E9B9B",
"%. c #9E9C9C",
"&. c #9F9C9C",
"*. c #9F9D9D",
"=. c #A09D9D",
/* pixels */
") ) L L A A M M M M m m s s s s v v D D I I ( ( ( ( ` ` ) ) U U s s u u u u h h A A Y Y ! ! W W L L C C l l h h s s w w < < @ @ ",
") ) L L A A M M M M m m s s s s v v D D I I ( ( ( ( ` ` ) ) U U s s u u u u h h A A Y Y ! ! W W L L C C l l h h s s w w < < @ @ ",
"I I A A b b w w w w q q 5 5 2 2 q q v v N N m m N N D D F F C C y y q q p p h h A A U U W W H H C C M M b b v v h h 0 0 < < + + ",
"I I A A b b w w w w q q 5 5 2 2 q q v v N N m m N N D D F F C C y y q q p p h h A A U U W W H H C C M M b b v v h h 0 0 < < + + ",
"b b k k u u 4 4 < < 5 5 5 5 6 6 u u v v m m l l s s d d v v N N s s a a l l l l H H ! ! ^ ^ Q Q Q Q Q Q R R L L C C r r , , @ @ ",
"b b k k u u 4 4 < < 5 5 5 5 6 6 u u v v m m l l s s d d v v N N s s a a l l l l H H ! ! ^ ^ Q Q Q Q Q Q R R L L C C r r , , @ @ ",
"k k w w 6 6 4 4 < < < < 3 3 3 3 9 9 a a v v h h p p v v m m v v N N M M b b b b C C U U ! ! ] ] [ [ ' ' ^ ^ W W A A h h 9 9 ; ; ",
"k k w w 6 6 4 4 < < < < 3 3 3 3 9 9 a a v v h h p p v v m m v v N N M M b b b b C C U U ! ! ] ] [ [ ' ' ^ ^ W W A A h h 9 9 ; ; ",
"b b w w < < < < , , : : : : > > 6 6 w w u u p p s s c c m m N N A A F F M M b b F F L L Q Q [ [ { { _ _ U U M M l l j j g g 9 9 ",
"b b w w < < < < , , : : : : > > 6 6 w w u u p p s s c c m m N N A A F F M M b b F F L L Q Q [ [ { { _ _ U U M M l l j j g g 9 9 ",
"F F u u 3 3 3 3 , , - - * * ; ; 3 3 9 9 9 9 y y s s l l b b B B F F L L L L L L W W W W ! ! _ _ ^ ^ P P b b u u w w u u h h u u ",
"F F u u 3 3 3 3 , , - - * * ; ; 3 3 9 9 9 9 y y s s l l b b B B F F L L L L L L W W W W ! ! _ _ ^ ^ P P b b u u w w u u h h u u ",
"A A u u w w 9 9 3 3 ; ; ; ; > > 5 5 9 9 w w w w . . . . . . . . . . . . W W W W W W W W ) ) ^ ^ U U A A k k w w 6 6 6 6 q q 9 9 ",
"A A u u w w 9 9 3 3 ; ; ; ; > > 5 5 9 9 w w w w . . . . . . . . . . . . W W W W W W W W ) ) ^ ^ U U A A k k w w 6 6 6 6 q q 9 9 ",
"N N j j l l a a w w 6 6 6 6 6 6 6 6 9 9 u u . . . . . . . . . . . . . . . . U U H H P P ^ ^ _ _ Q Q H H b b i i 6 6 3 3 6 6 < < ",
"N N j j l l a a w w 6 6 6 6 6 6 6 6 9 9 u u . . . . . . . . . . . . . . . . U U H H P P ^ ^ _ _ Q Q H H b b i i 6 6 3 3 6 6 < < ",
"K K n n M M b b h h s s i i w w 9 9 u u h h . . . . . . . . . . . . . . . . . . C C P P _ _ ] ] _ _ Q Q Z Z j j r r 9 9 8 8 ; ; ",
"K K n n M M b b h h s s i i w w 9 9 u u h h . . . . . . . . . . . . . . . . . . C C P P _ _ ] ] _ _ Q Q Z Z j j r r 9 9 8 8 ; ; ",
"P P A A F F F F A A z z f f u u u u l l M M . . . . . . . . . . . . . . . . . . A A W W } }  . .[ [ ^ ^ P P C C n n l l w w ; ; ",
"P P A A F F F F A A z z f f u u u u l l M M . . . . . . . . . . . . . . . . . . A A W W } }  . .[ [ ^ ^ P P C C n n l l w w ; ; ",
"P P A A F F L L L L C C z z h h l l A A F F . . o o o o o o o o o o o o o o A A L L ' ' X.X.X.X.{ { ' ' ) ) ! ! R R F F h h < < ",
"P P A A F F L L L L C C z z h h l l A A F F . . o o o o o o o o o o o o o o A A L L ' ' X.X.X.X.{ { ' ' ) ) ! ! R R F F h h < < ",
"U U A A C C H H R R P P S S A A F F U U U U o o % % % % % % % % % % % % % % F F W W | | +.+.+.+.o.o. . . . .X.X.] ] R R M M u u ",
"U U A A C C H H R R P P S S A A F F U U U U o o % % % % % % % % % % % % % % F F W W | | +.+.+.+.o.o. . . . .X.X.] ] R R M M u u ",
"F F M M C C S S U U W W U U L L U U Q Q R R % % % % % % % % % % % % % % % % Z Z W W { { @.@.$.$.#.#.$.$.@.@.O.O.[ [ U U b b a a ",
"F F M M C C S S U U W W U U L L U U Q Q R R % % % % % % % % % % % % % % % % Z Z W W { { @.@.$.$.#.#.$.$.@.@.O.O.[ [ U U b b a a ",
"M M b b C C A A F F L L L L U U W W ! ! P P % % % % % % % % % % % % % % % % j j F F ) ) o.o.#.#.*.*.=.=.&.&.O.O.] ] H H M M r r ",
"M M b b C C A A F F L L L L U U W W ! ! P P % % % % % % % % % % % % % % % % j j F F ) ) o.o.#.#.*.*.=.=.&.&.O.O.] ] H H M M r r ",
"F F l l A A l l h h M M L L W W ! ! W W A A f f % % % % % % % % % % % % % % r r z z H H _ _ O.O.%.%.&.&.&.&.@.@.{ { P P C C u u ",
"F F l l A A l l h h M M L L W W ! ! W W A A f f % % % % % % % % % % % % % % r r z z H H _ _ O.O.%.%.&.&.&.&.@.@.{ { P P C C u u ",
"! ! F F b b h h h h b b F F W W U U A A a a $ $ O O O O O O & & O O O O $ $ r r l l S S ) ) X.X.O.O.O.O.o.o. . .] ] R R C C i i ",
"! ! F F b b h h h h b b F F W W U U A A a a $ $ O O O O O O & & O O O O $ $ r r l l S S ) ) X.X.O.O.O.O.o.o. . .] ] R R C C i i ",
"W W F F L L F F n n j j l l A A L L M M $ $ $ $ $ $ $ $ O O & & O O $ $ $ $ $ $ f f H H ^ ^ _ _ ^ ^ ^ ^ ^ ^ Q Q ^ ^ _ _ U U a a ",
"W W F F L L F F n n j j l l A A L L M M $ $ $ $ $ $ $ $ O O & & O O $ $ $ $ $ $ f f H H ^ ^ _ _ ^ ^ ^ ^ ^ ^ Q Q ^ ^ _ _ U U a a ",
"T T Z Z L L P P S S z z b b A A F F m m $ $ $ $ $ $ $ $ O O & & O O $ $ $ $ $ $ l l F F U U F F S S H H T T R R ! ! ! ! W W j j ",
"T T Z Z L L P P S S z z b b A A F F m m $ $ $ $ $ $ $ $ O O & & O O $ $ $ $ $ $ l l F F U U F F S S H H T T R R ! ! ! ! W W j j ",
"S S V V H H R R G G F F U U R R P P $ $ $ $ $ $ $ $ $ $ O O & & O O $ $ $ $ $ $ $ $ F F A A b b j j z z M M F F F F L L U U s s ",
"S S V V H H R R G G F F U U R R P P $ $ $ $ $ $ $ $ $ $ O O & & O O $ $ $ $ $ $ $ $ F F A A b b j j z z M M F F F F L L U U s s ",
"P P Z Z S S H H P P R R ! ! W W F F $ $ $ $ C C $ $ $ $ O O & & O O $ $ F F $ $ $ $ A A M M j j f f a a h h l l b b A A L L v v ",
"P P Z Z S S H H P P R R ! ! W W F F $ $ $ $ C C $ $ $ $ O O & & O O $ $ F F $ $ $ $ A A M M j j f f a a h h l l b b A A L L v v ",
"P P G G C C A A F F P P P P F F A A $ $ $ $ F F $ $ $ $ O O & & O O $ $ L L $ $ $ $ H H C C f f i i i i f f b b m m b b M M p p ",
"P P G G C C A A F F P P P P F F A A $ $ $ $ F F $ $ $ $ O O & & O O $ $ L L $ $ $ $ H H C C f f i i i i f f b b m m b b M M p p ",
"Q Q J J C C M M S S H H F F A A b b % % % % W W $ $ $ $ O O & & O O $ $ K K % % % % L L n n f f f f l l M M F F D D v v k k 7 7 ",
"Q Q J J C C M M S S H H F F A A b b % % % % W W $ $ $ $ O O & & O O $ $ K K % % % % L L n n f f f f l l M M F F D D v v k k 7 7 ",
"^ ^ P P S S x x A A F F F F A A M M % % % % ! ! $ $ $ $ O O & & O O $ $ L L % % % % S S V V C C S S L L U U I I N N v v s s 5 5 ",
"^ ^ P P S S x x A A F F F F A A M M % % % % ! ! $ $ $ $ O O & & O O $ $ L L % % % % S S V V C C S S L L U U I I N N v v s s 5 5 ",
"~ ~ R R H H x x n n H H L L F F A A A A L L U U $ $ $ $ O O & & O O $ $ J J H H F F F F L L R R Q Q ! ! W W H H b b c c a a q q ",
"~ ~ R R H H x x n n H H L L F F A A A A L L U U $ $ $ $ O O & & O O $ $ J J H H F F F F L L R R Q Q ! ! W W H H b b c c a a q q ",
"T T R R S S b b b b H H U U H H C C n n M M A A # # # # # # # # # # # # A A F F F F W W ! ! / / ) ) ^ ^ W W F F b b b b a a w w ",
"T T R R S S b b b b H H U U H H C C n n M M A A # # # # # # # # # # # # A A F F F F W W ! ! / / ) ) ^ ^ W W F F b b b b a a w w ",
"H H H H M M m m M M L L Q Q U U A A b b z z l l # # # # r r u u # # # # l l C C P P ) ) ' ' ) ) ) ) ) ) R R F F F F Z Z h h 6 6 ",
"H H H H M M m m M M L L Q Q U U A A b b z z l l # # # # r r u u # # # # l l C C P P ) ) ' ' ) ) ) ) ) ) R R F F F F Z Z h h 6 6 ",
"S S n n b b N N H H U U Q Q U U F F A A C C f f # # # # i i r r # # # # a a l l H H ^ ^ ) ) ) ) ' ' ' ' W W U U R R F F h h < < ",
"S S n n b b N N H H U U Q Q U U F F A A C C f f # # # # i i r r # # # # a a l l H H ^ ^ ) ) ) ) ' ' ' ' W W U U R R F F h h < < ",
"Z Z j j b b M M A A L L U U L L L L R R P P l l # # # # u u i i # # # # r r a a n n H H R R ) ) [ [ ' ' ! ! W W R R A A h h < < ",
"Z Z j j b b M M A A L L U U L L L L R R P P l l # # # # u u i i # # # # r r a a n n H H R R ) ) [ [ ' ' ! ! W W R R A A h h < < ",
"C C f f z z h h h h M M L L P P W W ! ! R R b b # # # # w w r r # # # # r r i i j j z z A A W W ) ) ! ! W W W W P P z z j j < < ",
"C C f f z z h h h h M M L L P P W W ! ! R R b b # # # # w w r r # # # # r r i i j j z z A A W W ) ) ! ! W W W W P P z z j j < < ",
"x x t t r r 3 3 a a n n P P ^ ^ ] ] ] ] E E n n # # # # 8 8 q q # # # # w w f f l l b b F F U U U U F F A A L L F F b b h h 3 3 ",
"x x t t r r 3 3 a a n n P P ^ ^ ] ] ] ] E E n n # # # # 8 8 q q # # # # w w f f l l b b F F U U U U F F A A L L F F b b h h 3 3 ",
"e e 1 1 > > 0 0 C C H H P P _ _ ........_ _ P P         0 0 9 9         8 8 a a h h b b F F F F M M M M L L W W H H l l u u 9 9 ",
"e e 1 1 > > 0 0 C C H H P P _ _ ........_ _ P P         0 0 9 9         8 8 a a h h b b F F F F M M M M L L W W H H l l u u 9 9 ",
"= = @ @ X X 1 1 h h j j j j C C R R Q Q P P M M             9 9             3 3 3 3 9 9 u u a a a a h h b b N N h h 3 3 < < @ @ ",
"= = @ @ X X 1 1 h h j j j j C C R R Q Q P P M M             9 9             3 3 3 3 9 9 u u a a a a h h b b N N h h 3 3 < < @ @ "
};
