/* XPM */
static char *result[] = {
/* columns rows colors chars-per-pixel */
"64 64 105 2 ",
"   c black",
".  c #632300",
"X  c #663931",
"o  c #7E7B7B",
"O  c #8F563B",
"+  c #FF6500",
"@  c #807E7E",
"#  c #817F7F",
"$  c #5C877F",
"%  c #FF803B",
"&  c #D9A066",
"*  c #FFEE6C",
"=  c #818080",
"-  c #838080",
";  c #828181",
":  c #838181",
">  c #838282",
",  c #848282",
"<  c #848383",
"1  c #858383",
"2  c #868383",
"3  c #858484",
"4  c #868484",
"5  c #878484",
"6  c #868585",
"7  c #878585",
"8  c #878686",
"9  c #888585",
"0  c #888686",
"q  c #898686",
"w  c #888787",
"e  c #898787",
"r  c #8A8686",
"t  c #8A8787",
"y  c #8B8787",
"u  c #898888",
"i  c #8A8888",
"p  c #8B8888",
"a  c #8A8989",
"s  c #8B8989",
"d  c #8B8A8A",
"f  c #8B8B8B",
"g  c #8C8989",
"h  c #8D8989",
"j  c #8C8A8A",
"k  c #8D8A8A",
"l  c #8C8B8B",
"z  c #8D8B8B",
"x  c #8E8B8B",
"c  c #8F8B8B",
"v  c gray55",
"b  c #8D8C8C",
"n  c #8E8C8C",
"m  c #8F8C8C",
"M  c #8E8D8D",
"N  c #8F8D8D",
"B  c #8F8E8E",
"V  c #908C8C",
"C  c #908D8D",
"Z  c #918D8D",
"A  c #908E8E",
"S  c #918E8E",
"D  c #908F8F",
"F  c #918F8F",
"G  c #928E8E",
"H  c #928F8F",
"J  c #938F8F",
"K  c #919090",
"L  c #929090",
"P  c #939090",
"I  c #929191",
"U  c #939191",
"Y  c #939292",
"T  c #949090",
"R  c #949191",
"E  c #959191",
"W  c #949292",
"Q  c #959292",
"!  c #959393",
"~  c #969292",
"^  c #969393",
"/  c #959494",
"(  c #959595",
")  c #969494",
"_  c #979494",
"`  c #969595",
"'  c #979595",
"]  c #989595",
"[  c #989696",
"{  c #999696",
"}  c #989797",
"|  c #999797",
" . c #9A9797",
".. c #9B9797",
"X. c #9A9898",
"o. c #9B9898",
"O. c #9C9999",
"+. c #9C9A9A",
"@. c #9D9A9A",
"#. c #9D9B9B",
"$. c #9E9B9B",
"%. c #9E9C9C",
"&. c #9F9C9C",
"*. c #9F9D9D",
"=. c #A09D9D",
/* pixels */
") ) L L A A N N N N M M d d d d b b D D I I ( ( ( ( ` ` ) ) U U d d i i i i j j A A Y Y ! ! W W L L C C z z j j d d e e 1 1 # # ",
") ) L L A A N N N N M M d d d d b b D D I I ( ( ( ( ` ` ) ) U U d d i i i i j j A A Y Y ! ! W W L L C C z z j j d d e e 1 1 # # ",
"I I A A n n e e e e w w 6 6 3 3 w w b b B B M M B B D D F F C C u u w w a a j j A A U U W W H H C C N N n n b b j j q q 1 1 @ @ ",
"I I A A n n e e e e w w 6 6 3 3 w w b b B B M M B B D D F F C C u u w w a a j j A A U U W W H H C C N N n n b b j j q q 1 1 @ @ ",
"n n l l i i 5 5 1 1 6 6 6 6 7 7 i i b b M M z z d d f f b b B B d d s s z z z z H H ! ! ^ ^ Q Q Q Q Q Q R R L L C C t t < < # # ",
"n n l l i i 5 5 1 1 6 6 6 6 7 7 i i b b M M z z d d f f b b B B d d s s z z z z H H ! ! ^ ^ Q Q Q Q Q Q R R L L C C t t < < # # ",
"l l e e 7 7 5 5 1 1 1 1 4 4 4 4 0 0 s s b b j j a a b b M M b b B B N N n n n n C C U U ! ! ] ] [ [ ' ' ^ ^ W W A A j j 0 0 : : ",
"l l e e 7 7 5 5 1 1 1 1 4 4 4 4 0 0 s s b b j j a a b b M M b b B B N N n n n n C C U U ! ! ] ] [ [ ' ' ^ ^ W W A A j j 0 0 : : ",
"n n e e 1 1 1 1 < < > > > > , , 7 7 e e i i a a d d v v M M B B A A F F N N n n F F L L Q Q [ [ { { _ _ U U N N z z k k h h 0 0 ",
"n n e e 1 1 1 1 < < > > > > , , 7 7 e e i i a a d d v v M M B B A A F F N N n n F F L L Q Q [ [ { { _ _ U U N N z z k k h h 0 0 ",
"F F i i 4 4 4 4 < < ; ; = = : : 4 4 0 0 0 0 u u X X X X X X X X X X X X L L L L W W W W ! ! _ _ ^ ^ P P n n i i e e i i j j i i ",
"F F i i 4 4 4 4 < < ; ; = = : : 4 4 0 0 0 0 u u X X X X X X X X X X X X L L L L W W W W ! ! _ _ ^ ^ P P n n i i e e i i j j i i ",
"A A i i e e 0 0 4 4 : : : : , , 6 6 0 0 e e X X X X X X X X X X X X X X X X W W W W W W ) ) ^ ^ U U A A l l e e 7 7 7 7 w w 0 0 ",
"A A i i e e 0 0 4 4 : : : : , , 6 6 0 0 e e X X X X X X X X X X X X X X X X W W W W W W ) ) ^ ^ U U A A l l e e 7 7 7 7 w w 0 0 ",
"B B k k z z s s e e 7 7 7 7 7 7 7 7 0 0 i i X X X X X X X X X X X X X X X X X X H H P P ^ ^ _ _ Q Q H H n n p p 7 7 4 4 7 7 1 1 ",
"B B k k z z s s e e 7 7 7 7 7 7 7 7 0 0 i i X X X X X X X X X X X X X X X X X X H H P P ^ ^ _ _ Q Q H H n n p p 7 7 4 4 7 7 1 1 ",
"K K m m N N n n j j d d p p e e 0 0 i i j j X X X X X X X X X X X X X X X X X X C C P P _ _ ] ] _ _ Q Q Z Z k k t t 0 0 9 9 : : ",
"K K m m N N n n j j d d p p e e 0 0 i i j j X X X X X X X X X X X X X X X X X X C C P P _ _ ] ] _ _ Q Q Z Z k k t t 0 0 9 9 : : ",
"P P A A F F F F A A x x g g i i i i z z N N X X O O O O O O O O O O O O O O m m A A W W } }  . .[ [ ^ ^ P P C C m m z z e e : : ",
"P P A A F F F F A A x x g g i i i i z z N N X X O O O O O O O O O O O O O O m m A A W W } }  . .[ [ ^ ^ P P C C m m z z e e : : ",
"P P A A F F L L L L C C x x j j z z A A F F O O & & & & & & & & & & & & & & A A L L ' ' X.X.X.X.{ { ' ' ) ) ! ! R R F F j j 1 1 ",
"P P A A F F L L L L C C x x j j z z A A F F O O & & & & & & & & & & & & & & A A L L ' ' X.X.X.X.{ { ' ' ) ) ! ! R R F F j j 1 1 ",
"U U A A C C H H R R P P S S A A F F U U U U & & & & & &     & & & & & &     F F W W | | +.+.+.+.o.o. . . . .X.X.] ] R R N N i i ",
"U U A A C C H H R R P P S S A A F F U U U U & & & & & &     & & & & & &     F F W W | | +.+.+.+.o.o. . . . .X.X.] ] R R N N i i ",
"F F N N C C S S U U W W U U L L U U Q Q R R & & & & & & & & & & & & & & & & Z Z W W { { @.@.$.$.#.#.$.$.@.@.O.O.[ [ U U n n s s ",
"F F N N C C S S U U W W U U L L U U Q Q R R & & & & & & & & & & & & & & & & Z Z W W { { @.@.$.$.#.#.$.$.@.@.O.O.[ [ U U n n s s ",
"N N n n C C A A F F L L L L U U W W ! ! P P n n & & & & & & & & & & & & & & k k F F ) ) o.o.#.#.*.*.=.=.&.&.O.O.] ] H H N N t t ",
"N N n n C C A A F F L L L L U U W W ! ! P P n n & & & & & & & & & & & & & & k k F F ) ) o.o.#.#.*.*.=.=.&.&.O.O.] ] H H N N t t ",
"F F z z A A z z j j N N L L W W ! ! W W A A g g + + + + + + * * + + + + 5 5 t t x x H H _ _ O.O.%.%.&.&.&.&.@.@.{ { P P C C i i ",
"F F z z A A z z j j N N L L W W ! ! W W A A g g + + + + + + * * + + + + 5 5 t t x x H H _ _ O.O.%.%.&.&.&.&.@.@.{ { P P C C i i ",
"! ! F F n n j j j j n n F F W W U U A A s s % % % % % % + + * * + + % % % % t t z z S S ) ) X.X.O.O.O.O.o.o. . .] ] R R C C p p ",
"! ! F F n n j j j j n n F F W W U U A A s s % % % % % % + + * * + + % % % % t t z z S S ) ) X.X.O.O.O.O.o.o. . .] ] R R C C p p ",
"W W F F L L F F m m k k z z A A L L N N % % % % % % % % + + * * + + % % % % % % g g H H ^ ^ _ _ ^ ^ ^ ^ ^ ^ Q Q ^ ^ _ _ U U s s ",
"W W F F L L F F m m k k z z A A L L N N % % % % % % % % + + * * + + % % % % % % g g H H ^ ^ _ _ ^ ^ ^ ^ ^ ^ Q Q ^ ^ _ _ U U s s ",
"T T Z Z L L P P S S x x n n A A F F M M % % % % % % % % + + * * + + % % % % % % z z F F U U F F S S H H T T R R ! ! ! ! W W k k ",
"T T Z Z L L P P S S x x n n A A F F M M % % % % % % % % + + * * + + % % % % % % z z F F U U F F S S H H T T R R ! ! ! ! W W k k ",
"S S V V H H R R G G F F U U R R P P % % % % % % % % % % + + * * + + % % % % % % % % F F A A n n k k x x N N F F F F L L U U d d ",
"S S V V H H R R G G F F U U R R P P % % % % % % % % % % + + * * + + % % % % % % % % F F A A n n k k x x N N F F F F L L U U d d ",
"P P Z Z S S H H P P R R ! ! W W F F % % % % C C % % % % + + * * + + % % F F % % % % A A N N k k g g s s j j z z n n A A L L b b ",
"P P Z Z S S H H P P R R ! ! W W F F % % % % C C % % % % + + * * + + % % F F % % % % A A N N k k g g s s j j z z n n A A L L b b ",
"P P G G C C A A F F P P P P F F A A % % % % F F % % % % + + * * + + % % L L % % % % H H C C g g p p p p g g n n M M n n N N a a ",
"P P G G C C A A F F P P P P F F A A % % % % F F % % % % + + * * + + % % L L % % % % H H C C g g p p p p g g n n M M n n N N a a ",
"Q Q J J C C N N S S H H F F A A n n & & & & W W % % % % + + * * + + % % K K & & & & L L m m g g g g z z N N F F D D b b l l 8 8 ",
"Q Q J J C C N N S S H H F F A A n n & & & & W W % % % % + + * * + + % % K K & & & & L L m m g g g g z z N N F F D D b b l l 8 8 ",
"^ ^ P P S S c c A A F F F F A A N N & & & & ! ! % % % % + + * * + + % % L L & & & & S S V V C C S S L L U U I I B B b b d d 6 6 ",
"^ ^ P P S S c c A A F F F F A A N N & & & & ! ! % % % % + + * * + + % % L L & & & & S S V V C C S S L L U U I I B B b b d d 6 6 ",
"~ ~ R R H H c c m m H H L L F F A A A A L L U U % % % % + + * * + + % % J J H H F F F F L L R R Q Q ! ! W W H H n n v v s s w w ",
"~ ~ R R H H c c m m H H L L F F A A A A L L U U % % % % + + * * + + % % J J H H F F F F L L R R Q Q ! ! W W H H n n v v s s w w ",
"T T R R S S n n n n H H U U H H C C m m N N A A $ $ $ $ $ $ $ $ $ $ $ $ A A F F F F W W ! ! / / ) ) ^ ^ W W F F n n n n s s e e ",
"T T R R S S n n n n H H U U H H C C m m N N A A $ $ $ $ $ $ $ $ $ $ $ $ A A F F F F W W ! ! / / ) ) ^ ^ W W F F n n n n s s e e ",
"H H H H N N M M N N L L Q Q U U A A n n x x z z $ $ $ $ t t i i $ $ $ $ z z C C P P ) ) ' ' ) ) ) ) ) ) R R F F F F Z Z j j 7 7 ",
"H H H H N N M M N N L L Q Q U U A A n n x x z z $ $ $ $ t t i i $ $ $ $ z z C C P P ) ) ' ' ) ) ) ) ) ) R R F F F F Z Z j j 7 7 ",
"S S m m n n B B H H U U Q Q U U F F A A C C g g $ $ $ $ p p t t $ $ $ $ s s z z H H ^ ^ ) ) ) ) ' ' ' ' W W U U R R F F j j 1 1 ",
"S S m m n n B B H H U U Q Q U U F F A A C C g g $ $ $ $ p p t t $ $ $ $ s s z z H H ^ ^ ) ) ) ) ' ' ' ' W W U U R R F F j j 1 1 ",
"Z Z k k n n N N A A L L U U L L L L R R P P z z $ $ $ $ i i p p $ $ $ $ t t s s m m H H R R ) ) [ [ ' ' ! ! W W R R A A j j 1 1 ",
"Z Z k k n n N N A A L L U U L L L L R R P P z z $ $ $ $ i i p p $ $ $ $ t t s s m m H H R R ) ) [ [ ' ' ! ! W W R R A A j j 1 1 ",
"C C g g x x j j j j N N L L P P W W ! ! R R n n $ $ $ $ e e t t $ $ $ $ t t p p k k x x A A W W ) ) ! ! W W W W P P x x k k 1 1 ",
"C C g g x x j j j j N N L L P P W W ! ! R R n n $ $ $ $ e e t t $ $ $ $ t t p p k k x x A A W W ) ) ! ! W W W W P P x x k k 1 1 ",
"c c y y t t 4 4 s s m m P P ^ ^ ] ] ] ] E E m m $ $ $ $ 9 9 w w $ $ $ $ e e g g z z n n F F U U U U F F A A L L F F n n j j 4 4 ",
"c c y y t t 4 4 s s m m P P ^ ^ ] ] ] ] E E m m $ $ $ $ 9 9 w w $ $ $ $ e e g g z z n n F F U U U U F F A A L L F F n n j j 4 4 ",
"r r 2 2 , , q q C C H H P P _ _ ........_ _ P P . . . . q q 0 0 . . . . 9 9 s s j j n n F F F F N N N N L L W W H H z z i i 0 0 ",
"r r 2 2 , , q q C C H H P P _ _ ........_ _ P P . . . . q q 0 0 . . . . 9 9 s s j j n n F F F F N N N N L L W W H H z z i i 0 0 ",
"- - # # o o 2 2 j j k k k k C C R R Q Q P P N N . . . . . . 0 0 . . . . . . 4 4 4 4 0 0 i i s s s s j j n n B B j j 4 4 1 1 # # ",
"- - # # o o 2 2 j j k k k k C C R R Q Q P P N N . . . . . . 0 0 . . . . . . 4 4 4 4 0 0 i i s s s s j j n n B B j j 4 4 1 1 # # "
};
