/* XPM */
static char *result[] = {
/* columns rows colors chars-per-pixel */
"64 64 106 2 ",
"   c black",
".  c #632300",
"X  c #663931",
"o  c #7E7B7B",
"O  c #8F563B",
"+  c #FF6500",
"@  c #807E7E",
"#  c #817F7F",
"$  c #5C877F",
"%  c #FF803B",
"&  c #D9A066",
"*  c #FFEE6C",
"=  c #818080",
"-  c #838080",
";  c #828181",
":  c #838181",
">  c #838282",
",  c #848282",
"<  c #848383",
"1  c #858383",
"2  c #868383",
"3  c #858484",
"4  c #868484",
"5  c #878484",
"6  c #868585",
"7  c #878585",
"8  c #878686",
"9  c #888585",
"0  c #888686",
"q  c #898686",
"w  c #888787",
"e  c #898787",
"r  c #8A8686",
"t  c #8A8787",
"y  c #8B8787",
"u  c #898888",
"i  c #8A8888",
"p  c #8B8888",
"a  c #8A8989",
"s  c #8B8989",
"d  c #8B8A8A",
"f  c #8B8B8B",
"g  c #8C8989",
"h  c #8D8989",
"j  c #8C8A8A",
"k  c #8D8A8A",
"l  c #8C8B8B",
"z  c #8D8B8B",
"x  c #8E8B8B",
"c  c #8F8B8B",
"v  c gray55",
"b  c #8D8C8C",
"n  c #8E8C8C",
"m  c #8F8C8C",
"M  c #8E8D8D",
"N  c #8F8D8D",
"B  c #8F8E8E",
"V  c gray56",
"C  c #908C8C",
"Z  c #908D8D",
"A  c #918D8D",
"S  c #908E8E",
"D  c #918E8E",
"F  c #908F8F",
"G  c #918F8F",
"H  c #928E8E",
"J  c #928F8F",
"K  c #938F8F",
"L  c #919090",
"P  c #929090",
"I  c #939090",
"U  c #929191",
"Y  c #939191",
"T  c #939292",
"R  c #949090",
"E  c #949191",
"W  c #959191",
"Q  c #949292",
"!  c #959292",
"~  c #959393",
"^  c #969292",
"/  c #969393",
"(  c #959494",
")  c #959595",
"_  c #969494",
"`  c #979494",
"'  c #969595",
"]  c #979595",
"[  c #989595",
"{  c #989696",
"}  c #999696",
"|  c #989797",
" . c #999797",
".. c #9A9797",
"X. c #9B9797",
"o. c #9A9898",
"O. c #9B9898",
"+. c #9C9999",
"@. c #9C9A9A",
"#. c #9D9A9A",
"$. c #9D9B9B",
"%. c #9E9B9B",
"&. c #9E9C9C",
"*. c #9F9C9C",
"=. c #9F9D9D",
"-. c #A09D9D",
/* pixels */
"_ _ P P S S N N N N M M d d d d b b F F U U ) ) ) ) ' ' _ _ Y Y d d i i i i j j S S T T ~ ~ Q Q P P Z Z z z j j d d e e 1 1 # # ",
"_ _ P P S S N N N N M M d d d d b b F F U U ) ) ) ) ' ' _ _ Y Y d d i i i i j j S S T T ~ ~ Q Q P P Z Z z z j j d d e e 1 1 # # ",
"U U S S n n e e e e w w 6 6 3 3 w w b b B B M M B B F F G G Z Z u u w w a a j j S S Y Y Q Q J J Z Z N N n n b b j j q q 1 1 @ @ ",
"U U S S n n e e e e w w 6 6 3 3 w w b b B B M M B B F F G G Z Z u u w w a a j j S S Y Y Q Q J J Z Z N N n n b b j j q q 1 1 @ @ ",
"n n l l i i 5 5 1 1 6 6 6 6 7 7 i i b b M M z z d d f f b b B B d d s s z z z z J J ~ ~ / / ! ! ! ! ! ! E E P P Z Z t t < < # # ",
"n n l l i i 5 5 1 1 6 6 6 6 7 7 i i b b M M z z d d f f b b B B d d s s z z z z J J ~ ~ / / ! ! ! ! ! ! E E P P Z Z t t < < # # ",
"l l e e 7 7 5 5 1 1 1 1 4 4 4 4 0 0 s s b b j j a a b b M M b b B B N N n n n n Z Z Y Y ~ ~ [ [ { { ] ] / / Q Q S S j j 0 0 : : ",
"l l e e 7 7 5 5 1 1 1 1 4 4 4 4 0 0 s s b b j j a a b b M M b b B B N N n n n n Z Z Y Y ~ ~ [ [ { { ] ] / / Q Q S S j j 0 0 : : ",
"n n e e 1 1 1 1 < < > > > > , , 7 7 e e i i a a d d v v M M B B S S G G N N n n G G P P ! ! { { } } ` ` Y Y N N z z k k h h 0 0 ",
"n n e e 1 1 1 1 < < > > > > , , 7 7 e e i i a a d d v v M M B B S S G G N N n n G G P P ! ! { { } } ` ` Y Y N N z z k k h h 0 0 ",
"G G i i 4 4 4 4 < < ; ; = = : : 4 4 0 0 0 0 u u d d z z n n V V G G P P P P P P Q Q Q Q ~ ~ ` ` / / I I n n i i e e i i j j i i ",
"G G i i 4 4 4 4 < < ; ; = = : : 4 4 0 0 0 0 u u d d z z n n V V G G P P P P P P Q Q Q Q ~ ~ ` ` / / I I n n i i e e i i j j i i ",
"S S i i e e 0 0 4 4 : : : : , , 6 6 0 0 e e e e X X X X X X X X X X X X Q Q Q Q Q Q Q Q _ _ / / Y Y S S l l e e 7 7 7 7 w w 0 0 ",
"S S i i e e 0 0 4 4 : : : : , , 6 6 0 0 e e e e X X X X X X X X X X X X Q Q Q Q Q Q Q Q _ _ / / Y Y S S l l e e 7 7 7 7 w w 0 0 ",
"B B k k z z s s e e 7 7 7 7 7 7 7 7 0 0 i i X X X X X X X X X X X X X X X X Y Y J J I I / / ` ` ! ! J J n n p p 7 7 4 4 7 7 1 1 ",
"B B k k z z s s e e 7 7 7 7 7 7 7 7 0 0 i i X X X X X X X X X X X X X X X X Y Y J J I I / / ` ` ! ! J J n n p p 7 7 4 4 7 7 1 1 ",
"L L m m N N n n j j d d p p e e 0 0 i i j j X X X X X X X X X X X X X X X X X X Z Z I I ` ` [ [ ` ` ! ! A A k k t t 0 0 9 9 : : ",
"L L m m N N n n j j d d p p e e 0 0 i i j j X X X X X X X X X X X X X X X X X X Z Z I I ` ` [ [ ` ` ! ! A A k k t t 0 0 9 9 : : ",
"I I S S G G G G S S x x g g i i i i z z N N X X X X X X X X X X X X X X X X X X S S Q Q | | ....{ { / / I I Z Z m m z z e e : : ",
"I I S S G G G G S S x x g g i i i i z z N N X X X X X X X X X X X X X X X X X X S S Q Q | | ....{ { / / I I Z Z m m z z e e : : ",
"I I S S G G P P P P Z Z x x j j z z S S G G X X O O O O O O O O O O O O O O S S P P ] ] o.o.o.o.} } ] ] _ _ ~ ~ E E G G j j 1 1 ",
"I I S S G G P P P P Z Z x x j j z z S S G G X X O O O O O O O O O O O O O O S S P P ] ] o.o.o.o.} } ] ] _ _ ~ ~ E E G G j j 1 1 ",
"Y Y S S Z Z J J E E I I D D S S G G Y Y Y Y O O & & & & & & & & & & & & & & G G Q Q  . .@.@.@.@.O.O.........o.o.[ [ E E N N i i ",
"Y Y S S Z Z J J E E I I D D S S G G Y Y Y Y O O & & & & & & & & & & & & & & G G Q Q  . .@.@.@.@.O.O.........o.o.[ [ E E N N i i ",
"G G N N Z Z D D Y Y Q Q Y Y P P Y Y ! ! E E & & & & & &     & & & & & &     A A Q Q } } #.#.%.%.$.$.%.%.#.#.+.+.{ { Y Y n n s s ",
"G G N N Z Z D D Y Y Q Q Y Y P P Y Y ! ! E E & & & & & &     & & & & & &     A A Q Q } } #.#.%.%.$.$.%.%.#.#.+.+.{ { Y Y n n s s ",
"N N n n Z Z S S G G P P P P Y Y Q Q ~ ~ I I & & & & & & & & & & & & & & & & k k G G _ _ O.O.$.$.=.=.-.-.*.*.+.+.[ [ J J N N t t ",
"N N n n Z Z S S G G P P P P Y Y Q Q ~ ~ I I & & & & & & & & & & & & & & & & k k G G _ _ O.O.$.$.=.=.-.-.*.*.+.+.[ [ J J N N t t ",
"G G z z S S z z j j N N P P Q Q ~ ~ Q Q S S g g & & & & & & & & & & & & & & t t x x J J ` ` +.+.&.&.*.*.*.*.#.#.} } I I Z Z i i ",
"G G z z S S z z j j N N P P Q Q ~ ~ Q Q S S g g & & & & & & & & & & & & & & t t x x J J ` ` +.+.&.&.*.*.*.*.#.#.} } I I Z Z i i ",
"~ ~ G G n n j j j j n n G G Q Q Y Y S S s s 0 0 + + + + + + * * + + + + 2 2 t t z z D D _ _ o.o.+.+.+.+.O.O.....[ [ E E Z Z p p ",
"~ ~ G G n n j j j j n n G G Q Q Y Y S S s s 0 0 + + + + + + * * + + + + 2 2 t t z z D D _ _ o.o.+.+.+.+.O.O.....[ [ E E Z Z p p ",
"Q Q G G P P G G m m k k z z S S P P N N i i % % % % % % + + * * + + % % % % 9 9 g g J J / / ` ` / / / / / / ! ! / / ` ` Y Y s s ",
"Q Q G G P P G G m m k k z z S S P P N N i i % % % % % % + + * * + + % % % % 9 9 g g J J / / ` ` / / / / / / ! ! / / ` ` Y Y s s ",
"R R A A P P I I D D x x n n S S G G M M % % % % % % % % + + * * + + % % % % % % z z G G Y Y G G D D J J R R E E ~ ~ ~ ~ Q Q k k ",
"R R A A P P I I D D x x n n S S G G M M % % % % % % % % + + * * + + % % % % % % z z G G Y Y G G D D J J R R E E ~ ~ ~ ~ Q Q k k ",
"D D C C J J E E H H G G Y Y E E I I D D % % % % % % % % + + * * + + % % % % % % n n G G S S n n k k x x N N G G G G P P Y Y d d ",
"D D C C J J E E H H G G Y Y E E I I D D % % % % % % % % + + * * + + % % % % % % n n G G S S n n k k x x N N G G G G P P Y Y d d ",
"I I A A D D J J I I E E ~ ~ Q Q G G % % % % % % % % % % + + * * + + % % % % % % % % S S N N k k g g s s j j z z n n S S P P b b ",
"I I A A D D J J I I E E ~ ~ Q Q G G % % % % % % % % % % + + * * + + % % % % % % % % S S N N k k g g s s j j z z n n S S P P b b ",
"I I H H Z Z S S G G I I I I G G S S % % % % G G % % % % + + * * + + % % P P % % % % J J Z Z g g p p p p g g n n M M n n N N a a ",
"I I H H Z Z S S G G I I I I G G S S % % % % G G % % % % + + * * + + % % P P % % % % J J Z Z g g p p p p g g n n M M n n N N a a ",
"! ! K K Z Z N N D D J J G G S S n n % % % % Q Q % % % % + + * * + + % % L L % % % % P P m m g g g g z z N N G G F F b b l l 8 8 ",
"! ! K K Z Z N N D D J J G G S S n n % % % % Q Q % % % % + + * * + + % % L L % % % % P P m m g g g g z z N N G G F F b b l l 8 8 ",
"/ / I I D D c c S S G G G G S S N N & & & & ~ ~ % % % % + + * * + + % % P P & & & & D D C C Z Z D D P P Y Y U U B B b b d d 6 6 ",
"/ / I I D D c c S S G G G G S S N N & & & & ~ ~ % % % % + + * * + + % % P P & & & & D D C C Z Z D D P P Y Y U U B B b b d d 6 6 ",
"^ ^ E E J J c c m m J J P P G G S S & & & & Y Y % % % % + + * * + + % % K K & & & & G G P P E E ! ! ~ ~ Q Q J J n n v v s s w w ",
"^ ^ E E J J c c m m J J P P G G S S & & & & Y Y % % % % + + * * + + % % K K & & & & G G P P E E ! ! ~ ~ Q Q J J n n v v s s w w ",
"R R E E D D n n n n J J Y Y J J Z Z m m N N S S $ $ $ $ $ $ $ $ $ $ $ $ S S G G G G Q Q ~ ~ ( ( _ _ / / Q Q G G n n n n s s e e ",
"R R E E D D n n n n J J Y Y J J Z Z m m N N S S $ $ $ $ $ $ $ $ $ $ $ $ S S G G G G Q Q ~ ~ ( ( _ _ / / Q Q G G n n n n s s e e ",
"J J J J N N M M N N P P ! ! Y Y S S n n x x z z $ $ $ $ t t i i $ $ $ $ z z Z Z I I _ _ ] ] _ _ _ _ _ _ E E G G G G A A j j 7 7 ",
"J J J J N N M M N N P P ! ! Y Y S S n n x x z z $ $ $ $ t t i i $ $ $ $ z z Z Z I I _ _ ] ] _ _ _ _ _ _ E E G G G G A A j j 7 7 ",
"D D m m n n B B J J Y Y ! ! Y Y G G S S Z Z g g $ $ $ $ p p t t $ $ $ $ s s z z J J / / _ _ _ _ ] ] ] ] Q Q Y Y E E G G j j 1 1 ",
"D D m m n n B B J J Y Y ! ! Y Y G G S S Z Z g g $ $ $ $ p p t t $ $ $ $ s s z z J J / / _ _ _ _ ] ] ] ] Q Q Y Y E E G G j j 1 1 ",
"A A k k n n N N S S P P Y Y P P P P E E I I z z $ $ $ $ i i p p $ $ $ $ t t s s m m J J E E _ _ { { ] ] ~ ~ Q Q E E S S j j 1 1 ",
"A A k k n n N N S S P P Y Y P P P P E E I I z z $ $ $ $ i i p p $ $ $ $ t t s s m m J J E E _ _ { { ] ] ~ ~ Q Q E E S S j j 1 1 ",
"Z Z g g x x j j j j N N P P I I Q Q ~ ~ E E n n $ $ $ $ e e t t $ $ $ $ t t p p k k x x S S Q Q _ _ ~ ~ Q Q Q Q I I x x k k 1 1 ",
"Z Z g g x x j j j j N N P P I I Q Q ~ ~ E E n n $ $ $ $ e e t t $ $ $ $ t t p p k k x x S S Q Q _ _ ~ ~ Q Q Q Q I I x x k k 1 1 ",
"c c y y t t 4 4 s s m m I I / / [ [ [ [ W W m m $ $ $ $ 9 9 w w $ $ $ $ e e g g z z n n G G Y Y Y Y G G S S P P G G n n j j 4 4 ",
"c c y y t t 4 4 s s m m I I / / [ [ [ [ W W m m $ $ $ $ 9 9 w w $ $ $ $ e e g g z z n n G G Y Y Y Y G G S S P P G G n n j j 4 4 ",
"r r 2 2 , , q q Z Z J J I I ` ` X.X.X.X.` ` I I . . . . q q 0 0 . . . . 9 9 s s j j n n G G G G N N N N P P Q Q J J z z i i 0 0 ",
"r r 2 2 , , q q Z Z J J I I ` ` X.X.X.X.` ` I I . . . . q q 0 0 . . . . 9 9 s s j j n n G G G G N N N N P P Q Q J J z z i i 0 0 ",
"- - # # o o 2 2 j j k k k k Z Z E E ! ! I I N N . . . . . . 0 0 . . . . . . 4 4 4 4 0 0 i i s s s s j j n n B B j j 4 4 1 1 # # ",
"- - # # o o 2 2 j j k k k k Z Z E E ! ! I I N N . . . . . . 0 0 . . . . . . 4 4 4 4 0 0 i i s s s s j j n n B B j j 4 4 1 1 # # "
};
