/* XPM */
static char *_e56f5c35e7b4c08f833b4f9d1f21f6e7nrdp18DcuUNxEa8[] = {
/* columns rows colors chars-per-pixel */
"64 64 40 1 ",
"  c #422632",
". c #733D3B",
"X c #7E7B7B",
"o c #807E7E",
"O c #817F7F",
"+ c #D77643",
"@ c #E4A570",
"# c #818080",
"$ c #838080",
"% c #838282",
"& c #858484",
"* c #878484",
"= c #878686",
"- c #898787",
"; c #8A8686",
": c #8B8A8A",
"> c #8D8989",
", c #8C8B8B",
"< c gray55",
"1 c #8F8E8E",
"2 c gray56",
"3 c #908C8C",
"4 c #918D8D",
"5 c #908E8E",
"6 c #938F8F",
"7 c #929090",
"8 c #949191",
"9 c #959494",
"0 c #959595",
"q c #969494",
"w c #979494",
"e c #989595",
"r c #9B9797",
"t c #9A9898",
"y c #9C9999",
"u c #9F9C9C",
"i c #9F9D9D",
"p c #A09D9D",
"a c #C0CCDC",
"s c #F6E7DF",
/* pixels */
"qq77555,5511::::1:1577q00qq08e871::*::::557qqq8q7755::::,,--O>OO",
"qq7755551511:::::15577qq7q00ee78:::::*::55q7q78777551:1:,,--*OOO",
"7755,,-----**&$*--,121112272551<*<*<-:<:55787q7755111::5,,**O*OO",
"77551,-:--*-&***--,,221122725111:*==:-,,5588q77135,1:115>----OXO",
"11,,:-**&&*&*&=*-::,11<::::<<<11-,,,,,,3588ee88888q8887733*:**XO",
",1,,:-**&&&*&**=--,1<1:<::::1<11,,--,,,,85888qqq888e887755,=**X$",
":,--****&&&&*&*&*-,::1:::*2211:151355,3,5587qqeeeeeeqq8855<:*=$$",
",,--****$*&&&*&*---1:<::::<<:11:1155,3,35578q8eeree8q88q55<::*$&",
"1<*:$***&&%%%%%%***<:*<<:::11111555511,,5585q8eeeee88811,,>,>>*-",
":<:**$*$%&%%%%%%**<*::==::1,1115555555,1587888teyeee58,1,,,,>>*-",
"11::**O-&%%%X%%%**:***<<:::1:155575877777q888q8ee88651----,>,,>-",
"17*<**-O%&%%&%%X******:*:::1::5575777777q7q8q8ee8e651::-----,,--",
"151*:*:**$%&%%X$**-*----::,,,55,88q7q77q7q88eq8e85551:--**-*--O-",
"55::*:*:*%%&%%*$***:----::35553187877qq7q788qqq88855::--*-**----",
"55::<:::<*=*=***O>---->-,,5558,188qq7q7q7588q8ee8887:1::******O*",
"53,,:<::*:*=*=**--O--,,-,,555551888q87775785qqeq8885:1::*****>*O",
"555355,3,>,:->---->-,>,,,,5588118588555,5587eqeeee88353>>-*-**OO",
"855,,53,,,>:>----*->,,,,3,6585115888555555778eeqee8855,,---**-OO",
"7855755555,3>>---:,,533,5,58555,55555555557qtttteeee58553,,,*>*O",
"87555755553,-,->--,,35,3,5555551555555,555q7tqtteee8855533,3-,;O",
"8655758767555,,,,,5555555,3,,,,5-,,,555557eettttteeqqqqq8855,,OO",
"665557776855,,,,,1575555,3aaaaasssssss5558eqttttteeeqq8q8855,,O>",
"855555588866555555787855,,aaaaasssssss77q8teuttpyeyeteytee885,,>",
"885555658866555557878775aaaaasssssssssss77ttttpttyeyttttee6653>-",
"5755355568887q77878q8855aaaaasssssssssss8qeeypyprppyyyyyee7855,-",
"85,153558888777788888855,++++++++++++++388etyyypppypppyyey88,,,,",
",5,53555576777787qqq68,3-++++@@@@@@@@@@357e8yeyyypppppyyee7853--",
"555,5353777777q7q88q863,*++++@@@@@@@@@@,768wyypppppppryyee75,3--",
"55::553,,,3555q7q87q11-,-++++@@...@@@@@,,356qeyyypyppyyyee8655,-",
"851555,,,,555688qqq855,,O++++@.. ..@@@@*3555eqyyppppppprye6653--",
"8q755,,,,,,,558e7775::-**++++... ...@@@>,,55qqttptepyeeyee8855>>",
"8857,3,,,,,385887715::*-*O+++... ...@@--,155qqttttttryyeee863,>-",
"8855585533,,,,55565,--*-O-+++... ...@@**,>55ww8e88e8w88ww88e88,,",
"8866885533,,,5556555->-*>O+++... ...@@**,,66w6ee8e8ewww6wwee86::",
"8855776835,3,55555,5,>----+++@.. ..@@@,>,,8568555885w6888e8w88,,",
"88557788553,5,57855,,->**-+++@@...@@@@>>,55588565558668688w886>,",
"56336588665577888555,3,3,>+++@@@@@@@@@,,3,5555,35,,33,555777851:",
"553366886356778868563,3,3>-++@@@@@@@@,,3,,65553,,,3,5565757788::",
"665355666868qq885855353533,++@@@@@@@@555315553,>>>--,,,,5,55751,",
"8636655586888qq85555535353,++@@@@@@@@5535555,5>,>>,>,>,,5,55751,",
"686633555868585755555555777++@@@@@@@@777777753,>->->,:<15,,155-:",
"865635555686687555555858775++@@@@@@@@777771735>>>->,>1:111,1,5-:",
"88863553558557555,557788q77755,,,,5557887q773,>,>-,,:572551:<:-*",
"888655,565566555,555778q8877,5,-,,5,76w8q7773,>,>>,,137155,1<1**",
"8w86553355555755115588qq8w6733>>,,355686775555535566787711:1::**",
"ww6656,3555875551155877q887733>>>,53566877553355556588q7111<::**",
"w88866333,58775755557778653,>-,,33336656775758888q888857<<<<<<**",
"ww66553>55557755555577q76533>,,,3,33668577758588888e8881:1<<:<==",
"6688553,3,5688555333555533,,-->>,>,>5555777qqqqqeqqqq7755,3,,---",
"668855,3,5858858553,5,533,,-->>,>,>,556617q77qqqqqe87q77,1,3,,--",
"6666,5115555q88855,,,3,3>>-O---->-->,,3577qqqqqqqqqq88775555>,-O",
"556655,,5358888855553,,,>,--->->-->>,35577qqtqqqqqqq77775755,,->",
"563,3,1177778888575535>,--*-,----->>>-,,588eqqqqeeqt7q878855,:OO",
"5533,315777qq888855553>,---*-,---->-->,,85e8qeqqeqqqq7778855>>O*",
"653>3,5555778777658866,,*-----,>>-->>--,355888wweqqtqq7q8855,,-*",
"353,,35355777877858866,,-*-->->-**>---,,,555888weteqq7q78853,5O*",
"33>>3,,,,,5,65888w8q78,3:---*:*:>----->>,>3,3588qqq87q7q883,,,OO",
"33->>3,,,,355858888e885,--:,:*:<------>-,3,35588qqqqq7q785,3,3O>",
"33*>>>**,-3568e8eeee8853,,--*:****----->,,,5556877755577585,,,-O",
"3,>->*O*-,3,888eeeee8853,,---O:*>*-*-->>,,3,65888757558565,3,,O>",
"*-***O>*356656e8rrrrww85553,:***-***O*,>,,,356555111588w65:5,>-*",
">**Ooo*>535588eerrrrwe6555,,*::****O>-,-,,5,5555115,858855,,--*-",
"OOOOoX*O,,3>,,5588886835>>>**=*<**OO**O-***-,--,,-,,3,55,,****OO",
"OOOOoO**,>>,,,3588e8853,>>->:******O*O>O*O---,>,-,,,,,55,,***OOO"
};
