/* XPM */
static char *_83b0f555d7d40a3d973beff298ea59cM3mWkgJa026bgrxw[] = {
/* columns rows colors chars-per-pixel */
"64 64 43 1 ",
"  c #4E4E4E",
". c gray35",
"X c gray40",
"o c #6B6B6A",
"O c gray48",
"+ c #7E7B7B",
"@ c #D0262B",
"# c #817F7F",
"$ c #3A9532",
"% c #36AB2B",
"& c #818080",
"* c #838080",
"= c #838282",
"- c #858484",
"; c #878484",
": c #878686",
"> c #898787",
", c #8A8686",
"< c #8B8A8A",
"1 c #8D8989",
"2 c #8C8B8B",
"3 c gray55",
"4 c #8F8E8E",
"5 c gray56",
"6 c #908C8C",
"7 c #918D8D",
"8 c #908E8E",
"9 c #938F8F",
"0 c #929090",
"q c #949090",
"w c #949292",
"e c #969393",
"r c #969494",
"t c #989696",
"y c #9A9797",
"u c #9A9898",
"i c #9C9999",
"p c #A09D9D",
"a c #ACACAC",
"s c #B1B0AE",
"d c gray75",
"f c #D8D8D8",
"g c #FAE7E8",
/* pixels */
"rr0088828844<<<<ssssssssssssssssssssssssssssqrr00088<<4<22>>#>##",
"rr0088884844<<<<ssssssssssssssssssssssssssssrrqq0088<4<<22>>;###",
"008822>>>>>;;-*;ssgggg@@gg@@gg@@gg@@ggggggss000088444<4822;;#;##",
"008842><>>;>-;;;ssgggg@@gg@@gg@@gg@@ggggggssqr008824<<4812>>;###",
"4422<>;;--;-;-:;ssgg@@@@@@gg@@@@gg@@@@gg@@ssrrrq99qrqq0066>>;;O#",
"2422<>;;---;-;;:ssgg@@@@@@gg@@@@gg@@@@gg@@ssrrqqqqqqrq00822<;;O;",
"<2>>;;;;----;-;-ssgggg@@gg@@gg@@gg@@@@gg@@ssqrttutttrtq088<<;;;#",
"22>>;;;;*;---;-;ssgggg@@gg@@gg@@gg@@@@gg@@ssrrttttttrqqr88<<<;*;",
"<5;<;;;;--======ssssssssssssssssssssssssssssrqurttqtqq44221211;>",
"<<<;*;*;=-======ssssssssssssssssssssssssssssqqrutttrq8<4222211;>",
"50<<;;>*-===+===;;>#>;222222424480890000r00qrrrttqqq84;<>>11221>",
"00;<-;#<=-==-==+>#>>;>2;1222824408q800000r0rrqtrqt8444<<>>>>22>>",
"48<<:<;*;*=-ssssssssssssssssssssssssssssssssssssss884<<;;;>;>>#1",
"48<><<<;;==*ssssssssssssssssssssssssssssssssssssss88<<;<;;;;>>>>",
"88<<<<<<<;;;ssoooooooooooooooooooooooooooooooooossq9<4<<;;;;;;#;",
"8822<<<<;<;-ssooooooooooooooooooooooooooooooooooss98<4<<;;;;;1;#",
"88868826222<ssoo$$%%$$%%$$$$%%$$$$%%$$%%%%%%%%$$ssqq88221;>;;;##",
"q8284282221<ssoo$$%%$$%%$$$$%%$$$$%%$$%%%%%%%%$$ssqt8862>1>;>;##",
"0q8888888828ssoo$$$$%%%%%%%%ddddOO$$%%%%%%%%%%$$sstq9q886622;1;#",
"q088q8988862ssoo$$$$%%%%%%%%ddddOO$$%%%%%%%%%%$$ssqt9888262212,#",
"998880000088ssoo$$$$$$$$$$%%ddddOO%%%%%%%%%%%%$$sstqttrrqq8q22##",
"q98808000q88ssoo$$$$$$$$$$%%ddddOO%%%%%%%%%%%%$$sstttqrqqq0q22#1",
"0q88888qqq98ssoo$$$$$$%%ddddOOOOOO%%%%%%%%%%%%$$ssitttiitt99822>",
"q08888q8qqq8ssoo$$$$$$%%ddddOOOOOO%%%%%%%%%%%%$$sstiittitt99861>",
"08848699999tssoo$$$$$$ddOOddddOO%%%%%%%%%%%%%%%%sspiipiittqq84<<",
"0044688899e9ssoo$$$$$$ddOOddddOO%%%%%%%%%%%%%%%%ssiiiiiittqq88;<",
"884<868808q0ssoo$$$$ddOOOOddddOOOOOOOOOOOOOOddOOssppppiitq0824<;",
"282266888000ssoo$$$$ddOOOOddddOOOOOOOOOOOOOOddOOssppppiyttq886>2",
"88228822<268ssoo$$$$ddOOddOOOOddddOOddddddddddddssppppipttqq86>2",
"8q2888222288ssoo$$$$ddOOddOOOOddddOOddddddddddddssppppiittqq68>>",
"rr0828222222ssoo$$$$OO$$ddddOO%%%%%%OOOOOOOOddOOssyyiyyytt996821",
"qr8082222226ssoo$$$$OO$$ddddOO%%%%%%OOOOOOOOddO#ssiiyyyytt99821>",
"qrq800006622ssoo$$$$$$$$ddOOddOO%%%%%%%%%%%%%%%%ss99t9eetqtrq022",
"rq8800806622ssoo$$$$$$$$ddOOddOO%%%%%%%%%%%%%%%%ss9t9ye9qttq0q<<",
"qq8800qq6828ssoo$$$$ddddOO%%%%ddOO%%%%%%%%%%%%%%ss9q9q99ttetqq22",
"qq8800qq8828ssoo$$$$ddddOO%%%%ddOO%%%%%%%%%%%%%%ss8q9e99e9eqq822",
"8888q8qq9988ssffff$$OOOO$$%%%%OOOO%%%%%%%%%%%%%%ss2668898000q882",
"886689qq9689ssffff$$OOOO$$%%%%OOOO%%%%%%%%%%%%%%ss6282890800t922",
"9988890qqq99ssffff..$$$$%%%%%%%%%%%%%%%%%%%%%%%%ss2>222244880824",
"q966888qqq99ssffff..$$$$%%%%%%%%%%%%%%%%%%%%%%%%ss2222224<88084<",
"qq898688q8qqssXXXXXXXXXX%%%%%%%%%%%%%%%%%%%%%%%%ss>12<<44<2488><",
"qq98888889qqssXXXXXXXXXX%%%%%%%%%%%%%%%%%%%%%%%%ss12>4<4442428><",
"qqq0688688q8ssaaaa      %%%%%%%%%%%%%%%%%%%%%%%%ss624850884<<<>;",
"qrqq8828988qssaaaa      %%%%%%%%%%%%%%%%%%%%%%%%ss2224058824<4;;",
"te9e88668888ssffff..$$$$%%%%%%%%%%%%%%%%%%%%%%%%ss88000r44<5<<;;",
"9e9989268888ssffff..$$$$%%%%%%%%%%%%%%%%%%%%%%%%ss89r0q04455<<;;",
"t99999662684ss..ff..$$$$%%%%%%%%%%%%%%%%%%%%%%%%ss9trq80<<5<<<::",
"ee99886168q4ss..ff..$$$$%%%%%%%%%%%%%%%%%%%%%%%%sseeqqq5<5<<<4::",
"9qqq886262q8ss......$$%%%%%%%%%%%%%%%%%%%%%%%%%%ssqt0r004<2622>>",
"qqqq88262888ss......$$%%%%%%%%%%%%%%%%%%%%%%%%%%sstqrr505<68>2>>",
"8qq928448889ssoo$$%%%%%%%%%%%%%%%%%%%%%%%%%%%%%%ssrrqq00808822#>",
"q8qq88228689ssoo$$%%%%%%%%%%%%%%%%%%%%%%%%%%%%%%ssrr0000888822;>",
"88626288000qssoo$$%%%%%%$$%%%%%%%%%%%%%%%%%%%%%%sstrqq0qqq8822##",
"9866268800qqssoo$$%%%%%%$$%%%%%%%%%%%%%%%%%%%%%%ssrt0rqqq98812#;",
"886162888800ssoo$$$$%%%%%%%%%%%%%%%%%%%%%%%%%%%%sstrrr00t98822;;",
"8822288688qqssoo$$$$%%%%%%%%%%%%%%%%%%%%%%%%%%%%ssrtrr0rq98629#;",
"661126224<88ssoo$$%%%%%%%%%%%%%%%%%%%%%%%%%%%%$$ssrrr0r0qq2622#;",
"661166222228ssoo$$%%%%%%%%%%%%%%%%%%%%%%%%%%%%$$ssqq0r0rqq4<221#",
"261;>>1#>>66ssoo$$$$$$%%%%%%%%%%%%%%%%%%%%%%%%$$ss800800084<22#>",
"66,1;1#;2228ssoo$$$$$$%%%%%%%%%%%%%%%%%%%%%%%%$$ss0088000044221#",
";1;###6>8689ssoo$$%%%%%%%%%%%%%%%%%%%%%%%%%%%%$$ss548qqq9828>>>>",
"1;;;##1;6699ssoo$$%%%%%%%%%%%%%%%%%%%%%%%%%%%%$$ss4499qr88221>>;",
"#####+;;2212ssoo$$%%%%%%%%%%%%%%%%$$$$$$%%$$$$$$ss<<628822;;;###",
"####O#;#1222ssoo$$%%%%%%%%%%%%%%%%$$$$$$%%$$$$$$ss<4228822;;;###"
};
