/* XPM */
static char *_797bafedc334e1fac7ef61320a82e10rqfxqDyNZ5fXKcIZ[] = {
/* columns rows colors chars-per-pixel */
"64 64 144 2 ",
"   c #00000D",
".  c #000014",
"X  c #00001B",
"o  c #000021",
"O  c #00002F",
"+  c #001427",
"@  c #00182F",
"#  c #00003C",
"$  c #061C31",
"%  c #001D38",
"&  c #242A31",
"*  c gray20",
"=  c gray22",
"-  c #000056",
";  c #001152",
":  c #001C54",
">  c #001B5C",
",  c #002241",
"<  c #00274A",
"1  c #002C53",
"2  c #00235E",
"3  c #00305B",
"4  c #000E61",
"5  c #001C6C",
"6  c #002466",
"7  c #002A67",
"8  c #003464",
"9  c #00396C",
"0  c #002676",
"q  c #002C70",
"w  c #003171",
"e  c #003E75",
"r  c #00357A",
"t  c #00437E",
"y  c #4B4B4B",
"u  c #494A53",
"i  c #5E5F60",
"p  c #5F6061",
"a  c #646464",
"s  c #6B6B6B",
"d  c #747474",
"f  c #7B7B7B",
"g  c #817F7F",
"h  c #00C300",
"j  c #00D500",
"k  c #14FF13",
"l  c #4CB54C",
"z  c #5FB35F",
"x  c #00008C",
"c  c #002F80",
"v  c #003C84",
"b  c #00368A",
"n  c #003F8D",
"m  c #002C98",
"M  c #003C93",
"N  c #0037A3",
"B  c #003FAD",
"V  c #004787",
"C  c #00428D",
"Z  c #004796",
"A  c #004C90",
"S  c #00439C",
"D  c #004D9F",
"F  c #005098",
"G  c #3D5887",
"H  c #0049A6",
"J  c #0055A1",
"K  c #0052A8",
"L  c #005AAA",
"P  c #0047B7",
"I  c #0050B0",
"U  c #005EB3",
"Y  c #0056B9",
"T  c #005DBB",
"R  c #0063BC",
"E  c #004EC0",
"W  c #005BC2",
"Q  c #0055CA",
"!  c #005BD3",
"~  c #0068C4",
"^  c #0064CC",
"/  c #006CCD",
"(  c #0066D4",
")  c #006CD5",
"_  c #0062DD",
"`  c #006CDE",
"'  c #0071D6",
"]  c #0074DE",
"[  c #0068E7",
"{  c #0074E7",
"}  c #007AE7",
"|  c #006FF1",
" . c #006EFF",
".. c #0077F0",
"X. c #007EF1",
"o. c #0075FD",
"O. c #007EFD",
"+. c #0082FB",
"@. c #858383",
"#. c #8A8686",
"$. c #8C8B8B",
"%. c #918E8E",
"&. c #949292",
"*. c #9E9E9E",
"=. c #A09EA0",
"-. c #A3A3A3",
";. c #ACACAC",
":. c #B3B3B3",
">. c #B7B7B8",
",. c #BCBCBA",
"<. c #8BCD8B",
"1. c #96CA96",
"2. c #9AC49A",
"3. c #B5C6B5",
"4. c #B9DDB9",
"5. c #BCEBBC",
"6. c #AFB4C3",
"7. c #ACB6D2",
"8. c #ADB8D7",
"9. c #ADBADB",
"0. c #ADBCE2",
"q. c #ADBFEB",
"w. c #ADC1F2",
"e. c #ACC4FE",
"r. c #C3C3C3",
"t. c #CACACA",
"y. c #D5D5D5",
"u. c #D2D4DB",
"i. c #DDDCDD",
"p. c #D1D6E3",
"a. c #D1D7E9",
"s. c #D1D9ED",
"d. c #D1DAF4",
"f. c #D2DDFE",
"g. c #D8DBFF",
"h. c #E5DDE5",
"j. c #E3E3E3",
"k. c #EFEFEF",
"l. c #EBFEE1",
"z. c #F4FAEE",
"x. c #EDF2FF",
"c. c #F3F2F2",
"v. c #FAFFF1",
"b. c #FDFDFC",
/* pixels */
"u u u u u u u u u u u u u u u u u u u u u u u u u u u u u u u u u u u u u u u u u u u u u u u u u u u u u u u u u u u u u u u u ",
"u u u u u u u u u u u u u u u u u u u u u u u u u u u u u u u u u u u u u u u u u u u u u u u u u u u u u y u u u u u u u u u u ",
"u u &.&.t.r.t.t.t.t.t.t.t.t.r.t.t.r.t.t.t.t.t.t.t.t.r.t.t.t.t.t.r.t.t.t.t.t.r.t.t.t.t.t.t.t.t.t.t.r.t.t.t.t.t.t.r.r.>.>.@.z u u ",
"u u &.&.t.t.t.t.t.t.t.t.t.t.t.t.t.t.t.r.t.t.t.t.t.t.t.t.t.t.t.r.t.t.t.t.t.t.t.t.r.t.t.t.t.t.r.t.t.t.t.t.t.t.r.t.r.r.>.:.g f u u ",
"u u t.t.b.b.b.b.b.b.b.b.x.b.b.c.b.x.b.b.b.c.b.b.b.b.b.b.b.b.b.b.b.b.b.b.b.x.b.b.b.c.b.b.b.b.b.b.b.b.b.b.c.b.b.b.b.b.h.h.=.=.u u ",
"u u t.t.b.b.b.b.c.x.b.c.b.b.b.b.b.b.b.b.b.b.b.b.c.b.x.b.b.b.b.b.c.b.x.v.b.b.b.b.b.b.b.b.b.b.c.b.b.c.b.v.b.b.b.b.b.b.k.h.=.=.u u ",
"u u t.r.b.b.;.;.-.-.;.;.;.;.;.;.;.;.;.;.;.;.;.;.;.;.;.;.-.;.;.-.;.;.;.;.;.;.;.;.;.;.-.;.;.-.;.;.;.;.;.-.-.;.r.r.i.i.>.>.d d u u ",
"u u t.t.b.b.:.:.-.-.;.;.;.;.;.;.;.-.;.;.;.;.;.;.;.;.;.;.;.;.;.;.;.;.;.;.;.;.-.;.;.;.;.;.;.;.;.;.;.;.;.;.-.-.r.r.i.i.>.6.f f u u ",
"u u t.t.x.b., , , , , , , , , , , , , , , , , , , , , , , , , , , , , , , , , , , , , , , , , , , , , , G G 6.6.k.k.:.:.s s u u ",
"u u t.t.b.b., , , , , , , , , , , , , , , , , , , , , , , , , , , , , , , , , , , , , , , % , , , , , , G G 6.>.c.k.>.:.s s u u ",
"u u t.t.b.b., , # # # # # # # # # # # # # # # # # # # # # # # # # # # # # # ; ; > > 6 6 q q r r v v n n x x 7.7.b.b.,.r.s s u u ",
"u u t.t.c.b., , # # # # # # # # # # # # # # # # # # # # # # # # # # # # # # ; ; > > 6 6 q q r r v v n n x x 7.7.b.b.,.,.s s u u ",
"u u t.t.b.b., , # # g g b.b.c.k.t.t.*.*.y y u u + + @ @ % % , , < < 1 1 3 3 8 8 9 9 e e t t V V A A D A m m 7.7.b.b.,.,.s s u u ",
"u u r.t.b.b., , # # g g b.b.k.k.t.t.*.*.u y u u + + @ @ % % , , < < 1 1 3 3 8 8 9 9 e e t t V V A A F F m m 7.8.b.b.,.,.s s u u ",
"u u t.t.b.b., ,     f d k.k.y.y.-.-.p p * & X X @ @ % % , , < < 1 1 1 3 8 8 9 9 e e t t V V A A F F J J N N 8.9.b.b.,.,.s s u u ",
"u u t.t.b.b., ,     f f k.c.y.i.;.-.p p & & X X @ @ % % , , < < 1 1 3 3 8 8 9 9 e e t t V V A A F F J J N N 8.9.b.b.,.>.s s u u ",
"u u t.t.b.b., , # # a a t.t.-.;.i i u u . . @ $ % % , , < < 1 1 3 3 8 8 9 9 t t t t V V A A F F J J L L B B 9.9.b.b.,.,.s s u u ",
"u u r.t.b.c., , # # a a t.t.-.-.i i u u . . $ $ % % , , < < 1 1 3 3 8 3 9 8 9 t t t V V A F F F J J L L B H 9.9.b.b.r.6.s s u u ",
"u u t.t.b.b., , , , y y *.*.i p u u + + @ @ % % , , < < 1 1 3 3 8 8 9 9 t t t t V V A A F F J J L L U U P P 0.9.b.b.,.,.s s u u ",
"u u t.t.b.b., , , % y y *.*.i i u u + + @ @ % % , , < < 1 1 3 3 3 8 9 3 t 9 t t V V A A F F J J L L U U P P 0.0.b.b.,.,.s s u u ",
"u u t.t.b.x., , , , u u . . & & . . @ @ % % , , < < 1 1 3 3 8 8 t 3 t t t t V V A A F F J J L L U U R R P E 0.0.b.b.,.,.s s y u ",
"u u t.t.b.b., , , , u u . . & & . . @ @ % % , , < < 1 1 3 3 8 3 8 t t 9 t t V V A A F F J F L L R U R R E E 0.0.b.b.,.,.s s u u ",
"u u t.t.b.b., , , , X X % % $ $ $ $ % % , , < < 1 1 3 3 8 8 9 9 t 8 t t V V A A F F F J L L U U R R ~ ~ Q Q w.q.b.b.,.,.s s u u ",
"u u r.t.b.b., , , , X X % % $ $ $ $ % % , , < < 1 3 3 3 8 8 9 3 t t t t V V A F F F J J L L U U R R ~ ~ Q Q q.q.b.b.,.,.s s u u ",
"u u t.t.b.x., , # # @ @ + + @ @ % % , , < < 1 1 3 3 8 8 9 9 t t t t V V A A F F J J L L R R R R ~ ~ / / ! ! q.w.b.b.,.,.s s u u ",
"u u t.r.b.b., , # # @ @ + + @ @ % % , , < < 1 1 3 3 8 8 9 9 9 t t t V V A A F F J F L L R L R R ~ ~ / / ! ! q.w.b.b.,.,.s s u u ",
"u u t.t.b.b., ,     % % @ @ % % , , < < 1 1 3 3 8 8 9 9 t 9 t t t V A A F F F J L L R L R R R ~ / / ' ' _ _ w.w.b.b.,.,.s s u u ",
"u u t.t.b.b., ,     % % @ $ % % , , < < 1 3 3 3 3 8 9 9 9 t t t t t A A F F J J L L L R R R ~ ~ / / ' ' _ _ w.w.b.b.,.,.s s u u ",
"u u t.t.c.b., , # # , , % % , , < < 1 1 3 3 8 8 t 8 9 t t t V V A A F F J J L L U U R R ~ ~ / / ' ' ] ] [ [ w.w.b.b.,.,.s s u u ",
"u u t.t.b.b., , # # , , % % , , < < 1 1 3 3 8 8 9 9 t 9 t t V V A F F F J J L L U R R R ~ ~ / / ' ' ] ] [ [ w.e.b.b.,.,.s s u u ",
"u u t.r.b.b.% , X o < < , , < < 1 1 3 3 8 8 9 9 t t t t t V A A F F J J L L R U R R ~ ~ / / ' ' ] ] } } | | e.e.b.b.,.,.s s u u ",
"u u t.t.b.b., , o o < < , , < < 1 1 3 3 8 8 9 9 t 9 t t t V A A F F J F L L U U R R ~ ~ / / ' ' ] ] } } | | e.e.b.b.,.,.s s u u ",
"u u t.t.b.b., , O O 1 1 < < 1 1 3 3 8 8 9 9 e e t t V V A A F F F J L L U U R R ~ ~ / / ' ' ] ] } } +.} o.o.e.e.b.b.,.,.s s y y ",
"u u t.r.c.b., , O O 1 1 < < 1 1 3 1 8 8 9 9 e e t t V V A A F F J J L L U U R R ~ ~ / / ' ' ] ] } } +.+.o.o.e.e.b.b.,.,.s s u u ",
"u u t.t.b.b., , # # 3 3 1 1 3 3 8 8 9 9 e e t t V V A A F F J J L L R U R R ~ ~ / / ' ' ] ] } } ' +.+.+.o.O.e.e.b.b.,.,.s s u u ",
"u u t.t.b.b., , # # 3 3 1 1 3 3 8 8 9 9 e e t t V V A A F F J J L L U U R R ~ ~ / / ' ' ] ] } } +.+.+.+.o.O.e.e.b.b.,.,.s s u u ",
"u u t.t.x.b., , # # 2 2 : : 2 2 7 7 w w e r n V C C Z Z H F K K U U T T R ~ ^ / ) ) ` ` } { X...+.+.+.+.o.o.e.e.b.b.,.,.s s u u ",
"u u t.t.b.b., , # # 2 2 : : 2 2 7 7 w w r r v v C C Z Z F H K K I L T T ~ ~ / ^ ) ) ] ] { } ....+.+.+.+.o.o.e.e.b.v.,.,.s s u u ",
"u u r.t.b.b., , # O 4 4 - - 4 4 5 5 0 0 c c b b M M S S H H I I Y Y W W ^ ^ ( ( ` ` { { ....O.X.} X.O.O. . .e.e.b.b.,.,.s s u u ",
"u u t.t.b.b., , # - 4 4 - - 4 4 5 5 0 0 c c b b M M S S H H I I Y Y W W ! W ( ( ` [ { { ....O.O.+.+.O.+. . .e.q.b.b.,.,.s s u u ",
"u u t.t.c.c.-.-.,.6.y.y.y.u.u.u.u.u.u.u.p.p.u.p.p.p.p.p.a.a.a.a.s.s.s.s.s.d.d.d.d.d.f.f.f.f.d.f.f.f.g.g.f.g.x.x.b.b.,.,.a s u u ",
"u u t.t.b.b.-.=.,.>.u.u.u.u.u.u.u.u.u.p.p.u.p.u.p.p.p.p.a.a.a.s.s.a.s.s.d.s.d.d.d.d.f.d.f.f.f.f.f.f.g.g.g.f.x.x.b.b.,.,.s s u u ",
"u u t.t.x.b.:.:.j.j.b.b.b.b.b.b.b.b.b.b.b.b.b.b.b.b.b.b.b.b.b.b.b.b.b.b.b.b.b.v.v.b.b.b.v.b.b.b.v.v.l.l.l.l.z.z.c.b.>.>.s s u u ",
"u u r.t.b.b.:.:.j.j.b.b.b.b.b.b.b.b.b.b.b.b.b.b.b.b.b.b.b.b.b.b.b.b.b.b.b.b.b.b.b.b.b.b.b.b.v.b.v.v.l.l.l.l.z.z.c.c.>.>.s s u u ",
"u u r.t.i.j.i.i.y.i.i.i.i.i.i.i.i.i.i.i.p.i.i.i.i.i.i.i.i.i.i.i.p.j.i.i.i.i.i.i.i.i.i.i.i.i.h.h.5.5.k k j j 2.1.i.i.:.:.d d u u ",
"u u r.r.i.i.i.i.i.i.i.i.i.i.i.i.i.i.i.i.j.i.i.i.j.p.i.i.i.i.i.i.i.i.i.i.j.i.i.i.i.i.i.i.i.i.h.h.5.5.k k j h 1.1.i.i.:.:.d s u u ",
"u u t.r.i.i.j.j.j.i.i.j.i.j.j.i.i.j.i.j.j.j.r.r.%.%.y.y.r.3.%.&.i.y.>.>.&.&.i.i.j.i.i.j.i.i.j.h.4.4.j j h h <.<.h.i.:.:.s d u u ",
"u u r.r.j.j.j.j.i.i.i.i.i.i.i.i.i.i.i.i.j.j.,.r.%.&.y.u.3.r.&.&.i.i.>.>.*.&.i.i.j.j.i.i.j.i.j.h.4.4.j j h h <.<.h.i.:.:.d d u u ",
"u u r.r.y.y.t.y.t.t.t.t.y.t.t.y.u.t.t.t.y.y.;.;.s d r.r.;.;.d d t.t.-.=.f f t.t.y.t.t.t.y.t.t.y.3.3.z z l l 2.2.t.y.;.:.d d u u ",
"u u r.,.t.y.y.t.y.t.y.t.t.y.t.t.t.t.u.t.y.y.;.;.s s t.r.;.;.d d t.t.=.-.f f t.r.y.y.y.y.t.t.y.y.3.3.z z l l 2.2.y.t.:.:.d f u u ",
"u u ;.;.-.-.-.-.*.*.=.*.*.*.-.*.*.*.*.*.*.*.*.*.*.*.*.*.*.*.*.-.*.*.*.*.*.*.*.*.*.*.*.*.=.*.*.*.*.*.-.=.=.=.=.=.*.*.-.-.f d u u ",
"u u ;.-.-.-.-.=.&.&.=.*.*.*.*.*.*.*.*.2.*.*.*.*.*.*.*.*.*.*.*.*.*.*.*.=.*.*.*.*.*.*.*.*.*.*.*.*.*.*.=.=.=.=.=.=.*.*.-.=.f f u u ",
"%.%.u u u u u u u u u u u u u u y y * * = = = = = = = = = = = = = = = = = = = = = = = = * * y y u u u u u u u u u u u u u u @.@.",
"%.%.u u u u u u u u u u u u u u y y * * = = = = = = = = = = = = = = = = = = = = = = = = * * y y u u u u u u u u u u u u u u @.@.",
"%.%.#.#.%.$.%.%.%.%.&.%.&.&.u u = = * * * * * * * * * * * * * * * * * * * * * * * * * * * * = = u u &.&.&.*.&.&.&.&.%.%.$.$.@.@.",
"%.%.$.%.$.%.%.$.%.%.%.%.&.&.u u = = * * * * * * * * * * * * * * * * * * * * * * * * * * * * = = u u &.&.&.&.&.&.&.&.%.$.$.$.@.@.",
"%.%.#.#.#.%.$.$.$.$.$.$.u u u u $.%.$.$.$.$.$.$.$.$.$.$.$.$.$.$.$.$.$.$.$.$.$.$.$.$.$.$.$.#.$.&.u u u u &.&.&.&.%.&.$.$.$.$.@.@.",
"%.%.%.%.%.%.#.%.$.$.$.$.u u u u %.$.$.$.$.$.$.$.$.$.$.$.$.$.$.$.$.$.$.$.$.$.$.$.$.$.$.$.$.$.&.&.u u u u &.&.&.&.&.%.$.$.$.$.@.@.",
"#.%.#.#.#.#.@.@.$.$.u u t.y.i.i.y.i.i.y.u.i.y.i.y.y.y.y.u.y.u.y.u.y.y.y.y.i.u.y.y.i.y.y.u.y.y.y.i.y.t.y.u u %.&.%.%.%.$.$.$.@.@.",
"$.$.#.#.#.#.@.@.$.$.u u y.t.i.y.y.i.y.u.u.y.y.y.y.y.i.y.y.i.i.y.y.y.y.i.y.y.y.y.y.y.i.y.y.y.i.y.y.i.y.t.u u &.%.%.%.$.%.#.$.@.#.",
"#.#.g #.@.@.#.#.%.$.u u ;.:.:.;.;.:.;.;.:.;.;.;.;.:.;.;.:.;.;.;.;.;.;.;.:.;.;.:.;.;.;.:.;.;.;.;.:.:.;.;.u u &.&.%.%.$.$.#.#.#.#.",
"#.#.#.g g g #.#.%.$.u u ;.;.:.:.;.;.;.;.;.;.;.:.;.;.;.;.;.;.;.;.;.:.;.;.;.;.;.;.:.;.;.;.;.:.;.;.:.;.;.:.u u &.&.&.%.$.%.$.#.#.#.",
"g g g g g f @.@.$.$.u u u u y u u u u u u u u u u u u u u u u u u u u u u u u u u u u u u u u u u u u u u u %.%.$.$.#.@.@.@.g g ",
"g g g g f g @.@.$.$.u u u u u u u u u u u u u u u u u u u u u u u u u u u u u u u u u u u u u u u u u u u u %.$.$.$.@.@.@.@.g g "
};
