/* XPM */
static char *_ba827568ba6480df5218f583e9e6abaev4eCyZZGKmQC1ku[] = {
/* columns rows colors chars-per-pixel */
"64 64 66 1 ",
"  c black",
". c #632300",
"X c #663931",
"o c #7E7B7B",
"O c #8F563B",
"+ c #FF6500",
"@ c #807E7E",
"# c #817F7F",
"$ c #5C877F",
"% c #FF803B",
"& c #D9A066",
"* c #FFEE6C",
"= c #818080",
"- c #838080",
"; c #838282",
": c #848282",
"> c #848383",
", c #868383",
"< c #858484",
"1 c #878484",
"2 c #878686",
"3 c #888686",
"4 c #888787",
"5 c #898787",
"6 c #8A8686",
"7 c #8A8989",
"8 c #8B8989",
"9 c #8B8A8A",
"0 c #8B8B8B",
"q c #8C8989",
"w c #8D8989",
"e c #8C8B8B",
"r c #8F8B8B",
"t c gray55",
"y c #8F8C8C",
"u c #8F8E8E",
"i c gray56",
"p c #908C8C",
"a c #918D8D",
"s c #908E8E",
"d c #908F8F",
"f c #928E8E",
"g c #938F8F",
"h c #919090",
"j c #929090",
"k c #929191",
"l c #949090",
"z c #949191",
"x c #959292",
"c c #969292",
"v c #959494",
"b c #959595",
"n c #969494",
"m c #979494",
"M c #979595",
"N c #989595",
"B c #999696",
"V c #989797",
"C c #9B9797",
"Z c #9A9898",
"A c #9B9898",
"S c #9C9999",
"D c #9C9A9A",
"F c #9E9C9C",
"G c #9F9C9C",
"H c #A09D9D",
/* pixels */
"nnjjsssessuu9999u9usjjnbbnnbnnll09919999ssjnnjlnjjju9999ee55#w##",
"nnjjssssusus99999ussjjnnjnbbnBlj99909109ssnjnnlljjsuu0u9ee551###",
"jjssee5555511>;,55euiuuuiijijs0u9,1459u9uujljnijssuuu99iee11#1##",
"jjssue5955,5111155eeiiuuiijissuu9910959eujnlnjijpseu9uuiw5555#o#",
"uuee9511>>1>1>4159eeuu9u99900uuu5eee9eepslllBlllllnllnjjpp551,##",
"euee9511>4>1>41455euuu9099009uuuee55eeeejsnnjnnnlllnlljjspe5,,##",
"9e5511114>4>1>1>,5e99u9091iiu09usupssepessnjnnnBBBBBnnnlssee5,;;",
"ee551111>1>>11>1555u99909900uuu9uussepepsujlnlBBZBnlnljnssee,5#;",
"u019;,11>>;;;;;;1140091099uuuuuussssuu0ssjjlnjBnBBBjlluseeweww15",
"u991,,1#>>;;;;;;119119909999uuuussssuuu0sslsnlZBBnBBjleseeeeww15",
"uu995,;5>>;;o;;;111110109999u9iisjlsjjjjjnlllnnBlllluu5555eweew5",
"ss19,,5#>>;;>;;o1;01110199u0u9iulsjjjjjjnjnnnlnnlBlsu9955555ee55",
"sse5919,11;>;;o;,5105555XXXXXXXXXXXXllnjjnjlnnlBlljuee555,5155#5",
"sse519191;;>;;1;,,115559XXXXXXXXXXXXnljnnjnlnnnlnlsue955,5115555",
"ssee009991411111,5#555XXXXXXXXXXXXXXXXjnisllnlZBlljjeu991,1111#1",
"spee099919141111555595XXXXXXXXXXXXXXXXljilljnnnnBljieu59,5111w1#",
"ssppusepewe95w5555w5ewXXXXXXXXXXXXXXXXXXssjjnBBBBBjlsssww51511##",
"lsuuespeee99w5555,5weeXXXXXXXXXXXXXXXXXXssjjBlBcnnllssee555115##",
"jlssjsssssepww555eeepsXXXXXXXXXXXXXXXXXXssjnnZDBBnBnslsspeee5w#1",
"ljsssjsssspe5e5w55eeseXXXXXXXXXXXXXXXXXXssnjZBZZZBBllsssppep5w6#",
"lfssjsljjjsse9999uujssXXOOOOOOOOOOOOOOussjBBZZZZBnBnnnnnlljsee##",
"lfsssjjjlnsseu0u9uujssXXOOOOOOOOOOOOOOuusjBlZCZZBZlBnnlnlljsee#1",
"ljsssssllllfsfssusjlllOO&&&&&&&&&&&&&&jjnjDBDDHDDDBDZBZZBBllpspe",
"jlssssjjllflssuijsljlfOO&&&&&&&&&&&&&&jjjjZBDDBCDBBBDBZZBnffss55",
"jjsspsssfllnjnjjljlnln&&&&&&  &&&&&&  sslnBBDGDHCHHDHCCDBnljj0u9",
"jsuuspsslllljjjjlljnll&&&&&&  &&&&&&  ssllnZDDDHHHDHDDDDBZllu05e",
"es9upsssjjjjjjjlnnnnfl&&&&&&&&&&&&&&&&esilBlDBDDHHHHHHDCBBjsse55",
"sss9spspjjjjjjnjjlnlff&&&&&&&&&&&&&&&&wejjlBDDHDDHHHCHDCnBslse5w",
"ss99uspe9upsssnjnnjnju5e&&&&&&&&&&&&&&5wepsfBBDDHDHHHHDHBBllps55",
"lsuussee99ssslnljnnjuuee&&&&&&&&&&&&&&55ppssBlDDHHCHDHCDBBlfsp5e",
"lnjsseee099esjlnjjju999,++++++**++++115weesslnZZHBDCDCBBBcclpsw5",
"nlsjepeeu9epjslljlij99,5++++++**++++1#w1esssnnBDBDCDBCDDBBffss5w",
"ccdlddddrur8r8sizdri88%%%%%%++**++%%%%HbqqddcccVccbcccccNcbczz08",
"ccsdlcddrr000riuddir88%%%%%%++**++%%%%0i88ziccccccbcccccNcNbcz88",
"dlrfdllcddrrrriiziri%%%%%%%%++**+++%%%%%r0zdcdzissdzdclczbccckrr",
"ldssldsldsr8rurzuzrq%%%%%%%%++**+++%%%%%rqizzcizddldldcdbzzbkir8",
"dfsfdllcssddzkzkildd%%%%%%%%++**++%%%%%%rriduirrqqrrrdzdsizdkk00",
"dsfrldfcsldfzzczdlss%%%%%%%%++**++%%%%%%rriduiurqrrrdrdidzddck80",
"flfrlsddlfllzbccdd%%%%%%%%%%++**++%%%%%%%%drrurqqqqq080rsrdiiirr",
"ldffrsldclcccczlsd%%%%%%%%%%++**++%%%%%%%%ddirqrqqqq8rr8rriizzu0",
"flffsfrdfdlflcfdsl%%%%dd%%%%++**++%%bt%%%%ibdsqq888888rrrdruur88",
"lffdrfdfddlllddddr%%%%dz%%%%++**++%%tb%%%%iirsqq888888ruirriri88",
"ccdfdrrslssdddfsrr%%%%zc%%%%++**++%%bt%%%%iirs8q8qr0irziiir88022",
"ccllrsdrsfddddslrr%%%%kz%%%%++**++%%tb%%%%kkrrqrqq8rrikiii0u0822",
"cclfdsrrsrlssdsiri&&&&ck%%%%++**++%%ii&&&&idsssrssdlkzzkui8i0022",
"ccclslrrfddzdddsiz&&&&cV%%%%++**++%%bi&&&&iirrrssrldzzikuii008>2",
"ccccfdrrrrdddcsdir&&&&zz%%%%++**++%%ii&&&&iidzdcczccczzdr80u8822",
"ccllddrrrsllddizii&&&&ki%%%%++**++%%bi&&&&ikzdlccccccdiiir008802",
"cccddsrrriddlzddrdrssrzi$$$$$$$$$$$$ddsziizczcbNbccNkcizrrsrq822",
"dldciirr0rdzlcdzrsrrridd$$$$$$$$$$$$srddizczbbzcNbcccczirrrrq888",
"lddciririiiiccdlddrrrr88$$$$q1<8$$$$rqrdzicNbNNbcbbbciiziids8r<<",
"ddldrirrirdzzczcidrrrr0r$$$$1qq8$$$$0rurdzbNbNcbNNcbcdziiids8r<2",
"srrrrriiizckczzzidssru88$$$$88<q$$$$88rrzdmcbcNbbNNbzckkclsd08<<",
"lfrrsriddizkccizizdsru88$$$$88q<$$$$qqr8ddccbkbcbNNbczizclddr8<<",
"ssqqrrdrddziizzizicddl0i$$$$<888$$$$<8qqrszdczbbNANNbczbdcddrq<;",
"rfqfqdrdssizcczidzccdcr8$$$$8888$$$$888qrsdlzcccNbbNzbczclrd8q:<",
"frqqrqqrqriridcdccdzczrr$$$$811q$$$$8<q88rrriiczcbkckckcdlrr00<<",
"fsqqrrrqrqrudzldccbczcur$$$$<8q<$$$$8888r00rdizcbVccckcccdrr8r<<",
"qrq388<188ruzdccAcAczzrr$$$$1388$$$$<88q8ri8dzdczzidiiizddrrqq<<",
"fqq18<1188rrdccNcAccccri$$$$31<8$$$$8<qqr0rrsdzdkziziikidzrrr8<<",
"1611::<3rsszcdAcAAAAcNcl....3333....11qqqrriddizirirziczsdrr88<<",
"66<1::q1rsdddlcNAAAANmdd....3333....11qqrqqrsuzdririzdzcddrq8833",
"#:o:oo<<rqqrqrdscdccllfr......8<......1<<1228888880rrrddqq1<:<##",
"-:##oo<<qrrqrqdrzcdcclrs......18......<1<<3>88888880rrsdqr<<<<##"
};
