/* XPM */
static char *result[] = {
/* columns rows colors chars-per-pixel */
"32 32 105 2 ",
"   c black",
".  c #632300",
"X  c #663931",
"o  c #7E7B7B",
"O  c #8F563B",
"+  c #FF6500",
"@  c #807E7E",
"#  c #817F7F",
"$  c #5C877F",
"%  c #FF803B",
"&  c #D9A066",
"*  c #FFEE6C",
"=  c #818080",
"-  c #838080",
";  c #828181",
":  c #838181",
">  c #838282",
",  c #848282",
"<  c #848383",
"1  c #858383",
"2  c #868383",
"3  c #858484",
"4  c #868484",
"5  c #878484",
"6  c #868585",
"7  c #878585",
"8  c #878686",
"9  c #888585",
"0  c #888686",
"q  c #898686",
"w  c #888787",
"e  c #898787",
"r  c #8A8686",
"t  c #8A8787",
"y  c #8B8787",
"u  c #898888",
"i  c #8A8888",
"p  c #8B8888",
"a  c #8A8989",
"s  c #8B8989",
"d  c #8B8A8A",
"f  c #8B8B8B",
"g  c #8C8989",
"h  c #8D8989",
"j  c #8C8A8A",
"k  c #8D8A8A",
"l  c #8C8B8B",
"z  c #8D8B8B",
"x  c #8E8B8B",
"c  c #8F8B8B",
"v  c gray55",
"b  c #8D8C8C",
"n  c #8E8C8C",
"m  c #8F8C8C",
"M  c #8E8D8D",
"N  c #8F8D8D",
"B  c #8F8E8E",
"V  c #908C8C",
"C  c #908D8D",
"Z  c #918D8D",
"A  c #908E8E",
"S  c #918E8E",
"D  c #908F8F",
"F  c #918F8F",
"G  c #928E8E",
"H  c #928F8F",
"J  c #938F8F",
"K  c #919090",
"L  c #929090",
"P  c #939090",
"I  c #929191",
"U  c #939191",
"Y  c #939292",
"T  c #949090",
"R  c #949191",
"E  c #959191",
"W  c #949292",
"Q  c #959292",
"!  c #959393",
"~  c #969292",
"^  c #969393",
"/  c #959494",
"(  c #959595",
")  c #969494",
"_  c #979494",
"`  c #969595",
"'  c #979595",
"]  c #989595",
"[  c #989696",
"{  c #999696",
"}  c #989797",
"|  c #999797",
" . c #9A9797",
".. c #9B9797",
"X. c #9A9898",
"o. c #9B9898",
"O. c #9C9999",
"+. c #9C9A9A",
"@. c #9D9A9A",
"#. c #9D9B9B",
"$. c #9E9B9B",
"%. c #9E9C9C",
"&. c #9F9C9C",
"*. c #9F9D9D",
"=. c #A09D9D",
/* pixels */
") L A N N M d d b D I ( ( ` ) U d i i j A Y ! W L C z j d e 1 # ",
"I A n e e w 6 3 w b B M B D F C u w a j A U W H C N n b j q 1 @ ",
"n l i 5 1 6 6 7 i b M z d f b B d s z z H ! ^ Q Q Q R L C t < # ",
"l e 7 5 1 1 4 4 0 s b j a b M b B N n n C U ! ] [ ' ^ W A j 0 : ",
"n e 1 1 < > > , 7 e i a d v M B A F N n F L Q [ { _ U N z k h 0 ",
"F i 4 4 < ; = : 4 0 0 u X X X X X X L L W W ! _ ^ P n i e i j i ",
"A i e 0 4 : : , 6 0 e X X X X X X X X W W W ) ^ U A l e 7 7 w 0 ",
"B k z s e 7 7 7 7 0 i X X X X X X X X X H P ^ _ Q H n p 7 4 7 1 ",
"K m N n j d p e 0 i j X X X X X X X X X C P _ ] _ Q Z k t 0 9 : ",
"P A F F A x g i i z N X O O O O O O O m A W }  .[ ^ P C m z e : ",
"P A F L L C x j z A F O & & & & & & & A L ' X.X.{ ' ) ! R F j 1 ",
"U A C H R P S A F U U & & &   & & &   F W | +.+.o. . .X.] R N i ",
"F N C S U W U L U Q R & & & & & & & & Z W { @.$.#.$.@.O.[ U n s ",
"N n C A F L L U W ! P n & & & & & & & k F ) o.#.*.=.&.O.] H N t ",
"F z A z j N L W ! W A % + + + * + + % t x H _ O.%.&.&.@.{ P C i ",
"! F n j j n F W U A % % % % + * + % % % z S ) X.O.O.o. .] R C p ",
"W F L F m k z A L N % % % % + * + % % % g H ^ _ ^ ^ ^ Q ^ _ U s ",
"T Z L P S x n A F % % % % % + * + % % % % F U F S H T R ! ! W k ",
"S V H R G F U R P % % x % % + * + % z % % F A n k x N F F L U d ",
"P Z S H P R ! W F % % C % % + * + % F % % A N k g s j z n A L b ",
"P G C A F P P F A & & F % % + * + % L & & H C g p p g n M n N a ",
"Q J C N S H F A n & & W % % + * + % K & & L m g g z N F D b l 8 ",
"^ P S c A F F A N A U ! % % + * + % L P U S V C S L U I B b d 6 ",
"~ R H c m H L F A A L U % % + * + % J H F F L R Q ! W H n v s w ",
"T R S n n H U H C m N A $ $ $ $ $ $ A F F W ! / ) ^ W F n n s e ",
"H H N M N L Q U A n x z $ $ t i $ $ z C P ) ' ) ) ) R F F Z j 7 ",
"S m n B H U Q U F A C g $ $ p t $ $ s z H ^ ) ) ' ' W U R F j 1 ",
"Z k n N A L U L L R P z $ $ i p $ $ t s m H R ) [ ' ! W R A j 1 ",
"C g x j j N L P W ! R n $ $ e t $ $ t p k x A W ) ! W W P x k 1 ",
"c y t 4 s m P ^ ] ] E m $ $ 9 w $ $ e g z n F U U F A L F n j 4 ",
"r 2 , q C H P _ ...._ P . . q 0 . . 9 s j n F F N N L W H z i 0 ",
"- # o 2 j k k C R Q P N . . . 0 . . . 4 4 0 i s s j n B j 4 1 # "
};
