/* XPM */
static char *result[] = {
/* columns rows colors chars-per-pixel */
"32 32 105 2 ",
"   c #632300",
".  c #663931",
"X  c #7E7B7B",
"o  c #8F563B",
"O  c #FF6500",
"+  c #807E7E",
"@  c #817F7F",
"#  c #5C877F",
"$  c #FF803B",
"%  c #D9A066",
"&  c #FFEE6C",
"*  c #818080",
"=  c #838080",
"-  c #828181",
";  c #838181",
":  c #838282",
">  c #848282",
",  c #848383",
"<  c #858383",
"1  c #868383",
"2  c #858484",
"3  c #868484",
"4  c #878484",
"5  c #868585",
"6  c #878585",
"7  c #878686",
"8  c #888585",
"9  c #888686",
"0  c #898686",
"q  c #888787",
"w  c #898787",
"e  c #8A8686",
"r  c #8A8787",
"t  c #8B8787",
"y  c #898888",
"u  c #8A8888",
"i  c #8B8888",
"p  c #8A8989",
"a  c #8B8989",
"s  c #8B8A8A",
"d  c #8B8B8B",
"f  c #8C8989",
"g  c #8D8989",
"h  c #8C8A8A",
"j  c #8D8A8A",
"k  c #8C8B8B",
"l  c #8D8B8B",
"z  c #8E8B8B",
"x  c #8F8B8B",
"c  c gray55",
"v  c #8D8C8C",
"b  c #8E8C8C",
"n  c #8F8C8C",
"m  c #8E8D8D",
"M  c #8F8D8D",
"N  c #8F8E8E",
"B  c gray56",
"V  c #908C8C",
"C  c #908D8D",
"Z  c #918D8D",
"A  c #908E8E",
"S  c #918E8E",
"D  c #908F8F",
"F  c #918F8F",
"G  c #928E8E",
"H  c #928F8F",
"J  c #938F8F",
"K  c #919090",
"L  c #929090",
"P  c #939090",
"I  c #929191",
"U  c #939191",
"Y  c #939292",
"T  c #949090",
"R  c #949191",
"E  c #959191",
"W  c #949292",
"Q  c #959292",
"!  c #959393",
"~  c #969292",
"^  c #969393",
"/  c #959494",
"(  c #959595",
")  c #969494",
"_  c #979494",
"`  c #969595",
"'  c #979595",
"]  c #989595",
"[  c #989696",
"{  c #999696",
"}  c #989797",
"|  c #999797",
" . c #9A9797",
".. c #9B9797",
"X. c #9A9898",
"o. c #9B9898",
"O. c #9C9999",
"+. c #9C9A9A",
"@. c #9D9A9A",
"#. c #9D9B9B",
"$. c #9E9B9B",
"%. c #9E9C9C",
"&. c #9F9C9C",
"*. c #9F9D9D",
"=. c #A09D9D",
/* pixels */
") L A M M m s s v D I ( ( ` ) U s u u h A Y ! W L C l h s w < @ ",
"I A b w w q 5 2 q v N m N D F C y q p h A U W H C M b v h 0 < + ",
"b k u 4 < 5 5 6 u v m l s d v N s a l l H ! ^ Q Q Q R L C r , @ ",
"k w 6 4 < < 3 3 9 a v h p v m v N M b b C U ! ] [ ' ^ W A h 9 ; ",
"b w < < , : : > 6 w u p s c m N A F M b F L Q [ { _ U M l j g 9 ",
"F u 3 3 , - * ; 3 9 9 y s l b B F L L L W W ! _ ^ P b u w u h u ",
"A u w 9 3 ; ; > 5 9 w w . . . . . . W W W W ) ^ U A k w 6 6 q 9 ",
"N j l a w 6 6 6 6 9 u . . . . . . . . U H P ^ _ Q H b i 6 3 6 < ",
"K n M b h s i w 9 u h . . . . . . . . . C P _ ] _ Q Z j r 9 8 ; ",
"P A F F A z f u u l M . . . . . . . . . A W }  .[ ^ P C n l w ; ",
"P A F L L C z h l A F . o o o o o o o A L ' X.X.{ ' ) ! R F h < ",
"U A C H R P S A F U U o % % % % % % % F W | +.+.o. . .X.] R M u ",
"F M C S U W U L U Q R % % % % % % % % Z W { @.$.#.$.@.O.[ U b a ",
"M b C A F L L U W ! P % % % % % % % % j F ) o.#.*.=.&.O.] H M r ",
"F l A l h M L W ! W A f % % % % % % % r z H _ O.%.&.&.@.{ P C u ",
"! F b h h b F W U A a $ O O O & O O $ r l S ) X.O.O.o. .] R C i ",
"W F L F n j l A L M $ $ $ $ O & O $ $ $ f H ^ _ ^ ^ ^ Q ^ _ U a ",
"T Z L P S z b A F m $ $ $ $ O & O $ $ $ l F U F S H T R ! ! W j ",
"S V H R G F U R P $ $ $ $ $ O & O $ $ $ $ F A b j z M F F L U s ",
"P Z S H P R ! W F $ $ C $ $ O & O $ F $ $ A M j f a h l b A L v ",
"P G C A F P P F A $ $ F $ $ O & O $ L $ $ H C f i i f b m b M p ",
"Q J C M S H F A b % % W $ $ O & O $ K % % L n f f l M F D v k 7 ",
"^ P S x A F F A M % % ! $ $ O & O $ L % % S V C S L U I N v s 5 ",
"~ R H x n H L F A A L U $ $ O & O $ J H F F L R Q ! W H b c a q ",
"T R S b b H U H C n M A # # # # # # A F F W ! / ) ^ W F b b a w ",
"H H M m M L Q U A b z l # # r u # # l C P ) ' ) ) ) R F F Z h 6 ",
"S n b N H U Q U F A C f # # i r # # a l H ^ ) ) ' ' W U R F h < ",
"Z j b M A L U L L R P l # # u i # # r a n H R ) [ ' ! W R A h < ",
"C f z h h M L P W ! R b # # w r # # r i j z A W ) ! W W P z j < ",
"x t r 3 a n P ^ ] ] E n # # 8 q # # w f l b F U U F A L F b h 3 ",
"e 1 > 0 C H P _ ...._ P     0 9     8 a h b F F M M L W H l u 9 ",
"= @ X 1 h j j C R Q P M       9       3 3 9 u a a h b N h 3 < @ "
};
