/* XPM */
static char *result[] = {
/* columns rows colors chars-per-pixel */
"32 32 106 2 ",
"   c black",
".  c #632300",
"X  c #663931",
"o  c #7E7B7B",
"O  c #8F563B",
"+  c #FF6500",
"@  c #807E7E",
"#  c #817F7F",
"$  c #5C877F",
"%  c #FF803B",
"&  c #D9A066",
"*  c #FFEE6C",
"=  c #818080",
"-  c #838080",
";  c #828181",
":  c #838181",
">  c #838282",
",  c #848282",
"<  c #848383",
"1  c #858383",
"2  c #868383",
"3  c #858484",
"4  c #868484",
"5  c #878484",
"6  c #868585",
"7  c #878585",
"8  c #878686",
"9  c #888585",
"0  c #888686",
"q  c #898686",
"w  c #888787",
"e  c #898787",
"r  c #8A8686",
"t  c #8A8787",
"y  c #8B8787",
"u  c #898888",
"i  c #8A8888",
"p  c #8B8888",
"a  c #8A8989",
"s  c #8B8989",
"d  c #8B8A8A",
"f  c #8B8B8B",
"g  c #8C8989",
"h  c #8D8989",
"j  c #8C8A8A",
"k  c #8D8A8A",
"l  c #8C8B8B",
"z  c #8D8B8B",
"x  c #8E8B8B",
"c  c #8F8B8B",
"v  c gray55",
"b  c #8D8C8C",
"n  c #8E8C8C",
"m  c #8F8C8C",
"M  c #8E8D8D",
"N  c #8F8D8D",
"B  c #8F8E8E",
"V  c gray56",
"C  c #908C8C",
"Z  c #908D8D",
"A  c #918D8D",
"S  c #908E8E",
"D  c #918E8E",
"F  c #908F8F",
"G  c #918F8F",
"H  c #928E8E",
"J  c #928F8F",
"K  c #938F8F",
"L  c #919090",
"P  c #929090",
"I  c #939090",
"U  c #929191",
"Y  c #939191",
"T  c #939292",
"R  c #949090",
"E  c #949191",
"W  c #959191",
"Q  c #949292",
"!  c #959292",
"~  c #959393",
"^  c #969292",
"/  c #969393",
"(  c #959494",
")  c #959595",
"_  c #969494",
"`  c #979494",
"'  c #969595",
"]  c #979595",
"[  c #989595",
"{  c #989696",
"}  c #999696",
"|  c #989797",
" . c #999797",
".. c #9A9797",
"X. c #9B9797",
"o. c #9A9898",
"O. c #9B9898",
"+. c #9C9999",
"@. c #9C9A9A",
"#. c #9D9A9A",
"$. c #9D9B9B",
"%. c #9E9B9B",
"&. c #9E9C9C",
"*. c #9F9C9C",
"=. c #9F9D9D",
"-. c #A09D9D",
/* pixels */
"_ P S N N M d d b F U ) ) ' _ Y d i i j S T ~ Q P Z z j d e 1 # ",
"U S n e e w 6 3 w b B M B F G Z u w a j S Y Q J Z N n b j q 1 @ ",
"n l i 5 1 6 6 7 i b M z d f b B d s z z J ~ / ! ! ! E P Z t < # ",
"l e 7 5 1 1 4 4 0 s b j a b M b B N n n Z Y ~ [ { ] / Q S j 0 : ",
"n e 1 1 < > > , 7 e i a d v M B S G N n G P ! { } ` Y N z k h 0 ",
"G i 4 4 < ; = : 4 0 0 u d z n V G P P P Q Q ~ ` / I n i e i j i ",
"S i e 0 4 : : , 6 0 e e X X X X X X Q Q Q Q _ / Y S l e 7 7 w 0 ",
"B k z s e 7 7 7 7 0 i X X X X X X X X Y J I / ` ! J n p 7 4 7 1 ",
"L m N n j d p e 0 i j X X X X X X X X X Z I ` [ ` ! A k t 0 9 : ",
"I S G G S x g i i z N X X X X X X X X X S Q | ..{ / I Z m z e : ",
"I S G P P Z x j z S G X O O O O O O O S P ] o.o.} ] _ ~ E G j 1 ",
"Y S Z J E I D S G Y Y O & & & & & & & G Q  .@.@.O.....o.[ E N i ",
"G N Z D Y Q Y P Y ! E & & &   & & &   A Q } #.%.$.%.#.+.{ Y n s ",
"N n Z S G P P Y Q ~ I & & & & & & & & k G _ O.$.=.-.*.+.[ J N t ",
"G z S z j N P Q ~ Q S g & & & & & & & t x J ` +.&.*.*.#.} I Z i ",
"~ G n j j n G Q Y S s 0 + + + * + + 2 t z D _ o.+.+.O...[ E Z p ",
"Q G P G m k z S P N i % % % + * + % % 9 g J / ` / / / ! / ` Y s ",
"R A P I D x n S G M % % % % + * + % % % z G Y G D J R E ~ ~ Q k ",
"D C J E H G Y E I D % % % % + * + % % % n G S n k x N G G P Y d ",
"I A D J I E ~ Q G % % % % % + * + % % % % S N k g s j z n S P b ",
"I H Z S G I I G S % % G % % + * + % P % % J Z g p p g n M n N a ",
"! K Z N D J G S n % % Q % % + * + % L % % P m g g z N G F b l 8 ",
"/ I D c S G G S N & & ~ % % + * + % P & & D C Z D P Y U B b d 6 ",
"^ E J c m J P G S & & Y % % + * + % K & & G P E ! ~ Q J n v s w ",
"R E D n n J Y J Z m N S $ $ $ $ $ $ S G G Q ~ ( _ / Q G n n s e ",
"J J N M N P ! Y S n x z $ $ t i $ $ z Z I _ ] _ _ _ E G G A j 7 ",
"D m n B J Y ! Y G S Z g $ $ p t $ $ s z J / _ _ ] ] Q Y E G j 1 ",
"A k n N S P Y P P E I z $ $ i p $ $ t s m J E _ { ] ~ Q E S j 1 ",
"Z g x j j N P I Q ~ E n $ $ e t $ $ t p k x S Q _ ~ Q Q I x k 1 ",
"c y t 4 s m I / [ [ W m $ $ 9 w $ $ e g z n G Y Y G S P G n j 4 ",
"r 2 , q Z J I ` X.X.` I . . q 0 . . 9 s j n G G N N P Q J z i 0 ",
"- # o 2 j k k Z E ! I N . . . 0 . . . 4 4 0 i s s j n B j 4 1 # "
};
