/* XPM */
static char *result[] = {
/* columns rows colors chars-per-pixel */
"64 64 104 2 ",
"   c #632300",
".  c #663931",
"X  c #7E7B7B",
"o  c #8F563B",
"O  c #FF6500",
"+  c #807E7E",
"@  c #817F7F",
"#  c #5C877F",
"$  c #FF803B",
"%  c #D9A066",
"&  c #818080",
"*  c #838080",
"=  c #828181",
"-  c #838181",
";  c #838282",
":  c #848282",
">  c #848383",
",  c #858383",
"<  c #868383",
"1  c #858484",
"2  c #868484",
"3  c #878484",
"4  c #868585",
"5  c #878585",
"6  c #878686",
"7  c #888585",
"8  c #888686",
"9  c #898686",
"0  c #888787",
"q  c #898787",
"w  c #8A8686",
"e  c #8A8787",
"r  c #8B8787",
"t  c #898888",
"y  c #8A8888",
"u  c #8B8888",
"i  c #8A8989",
"p  c #8B8989",
"a  c #8B8A8A",
"s  c #8B8B8B",
"d  c #8C8989",
"f  c #8D8989",
"g  c #8C8A8A",
"h  c #8D8A8A",
"j  c #8C8B8B",
"k  c #8D8B8B",
"l  c #8E8B8B",
"z  c #8F8B8B",
"x  c gray55",
"c  c #8D8C8C",
"v  c #8E8C8C",
"b  c #8F8C8C",
"n  c #8E8D8D",
"m  c #8F8D8D",
"M  c #8F8E8E",
"N  c gray56",
"B  c #908C8C",
"V  c #908D8D",
"C  c #918D8D",
"Z  c #908E8E",
"A  c #918E8E",
"S  c #908F8F",
"D  c #918F8F",
"F  c #928E8E",
"G  c #928F8F",
"H  c #938F8F",
"J  c #919090",
"K  c #929090",
"L  c #939090",
"P  c #929191",
"I  c #939191",
"U  c #939292",
"Y  c #949090",
"T  c #949191",
"R  c #959191",
"E  c #949292",
"W  c #959292",
"Q  c #959393",
"!  c #969292",
"~  c #969393",
"^  c #959494",
"/  c #959595",
"(  c #969494",
")  c #979494",
"_  c #969595",
"`  c #979595",
"'  c #989595",
"]  c #989696",
"[  c #999696",
"{  c #989797",
"}  c #999797",
"|  c #9A9797",
" . c #9B9797",
".. c #9A9898",
"X. c #9B9898",
"o. c #9C9999",
"O. c #9C9A9A",
"+. c #9D9A9A",
"@. c #9D9B9B",
"#. c #9E9B9B",
"$. c #9E9C9C",
"%. c #9F9C9C",
"&. c #9F9D9D",
"*. c #A09D9D",
/* pixels */
"( ( K K Z Z m m m m n n a a a a c c S S P P / / / / _ _ ( ( I I a a y y y y g g Z Z U U Q Q E E K K V V k k g g a a q q , , @ @ ",
"( ( K K Z Z m m m m n n a a a a c c S S P P / / / / _ _ ( ( I I a a y y y y g g Z Z U U Q Q E E K K V V k k g g a a q q , , @ @ ",
"P P Z Z v v q q q q 0 0 4 4 1 1 0 0 c c M M n n M M S S D D V V t t 0 0 i i g g Z Z I I E E G G V V m m v v c c g g 9 9 , , + + ",
"P P Z Z v v q q q q 0 0 4 4 1 1 0 0 c c M M n n M M S S D D V V t t 0 0 i i g g Z Z I I E E G G V V m m v v c c g g 9 9 , , + + ",
"v v j j y y 3 3 , , 4 4 4 4 5 5 y y c c n n k k a a s s c c M M a a p p k k k k G G Q Q ~ ~ W W W W W W T T K K V V e e > > @ @ ",
"v v j j y y 3 3 , , 4 4 4 4 5 5 y y c c n n k k a a s s c c M M a a p p k k k k G G Q Q ~ ~ W W W W W W T T K K V V e e > > @ @ ",
"j j q q 5 5 3 3 , , , , 2 2 2 2 8 8 p p c c g g i i c c n n c c M M m m v v v v V V I I Q Q ' ' ] ] ` ` ~ ~ E E Z Z g g 8 8 - - ",
"j j q q 5 5 3 3 , , , , 2 2 2 2 8 8 p p c c g g i i c c n n c c M M m m v v v v V V I I Q Q ' ' ] ] ` ` ~ ~ E E Z Z g g 8 8 - - ",
"v v q q , , , , > > ; ; ; ; : : 5 5 q q y y i i a a x x n n M M Z Z D D m m v v D D K K W W ] ] [ [ ) ) I I m m k k h h f f 8 8 ",
"v v q q , , , , > > ; ; ; ; : : 5 5 q q y y i i a a x x n n M M Z Z D D m m v v D D K K W W ] ] [ [ ) ) I I m m k k h h f f 8 8 ",
"D D y y 2 2 2 2 > > = = & & - - 2 2 8 8 8 8 t t a a k k v v N N D D K K K K K K E E E E Q Q ) ) ~ ~ L L v v y y q q y y g g y y ",
"D D y y 2 2 2 2 > > = = & & - - 2 2 8 8 8 8 t t a a k k v v N N D D K K K K K K E E E E Q Q ) ) ~ ~ L L v v y y q q y y g g y y ",
"Z Z y y q q 8 8 2 2 - - - - : : 4 4 8 8 q q q q . . . . . . . . . . . . E E E E E E E E ( ( ~ ~ I I Z Z j j q q 5 5 5 5 0 0 8 8 ",
"Z Z y y q q 8 8 2 2 - - - - : : 4 4 8 8 q q q q . . . . . . . . . . . . E E E E E E E E ( ( ~ ~ I I Z Z j j q q 5 5 5 5 0 0 8 8 ",
"M M h h k k p p q q 5 5 5 5 5 5 5 5 8 8 y y . . . . . . . . . . . . . . . . I I G G L L ~ ~ ) ) W W G G v v u u 5 5 2 2 5 5 , , ",
"M M h h k k p p q q 5 5 5 5 5 5 5 5 8 8 y y . . . . . . . . . . . . . . . . I I G G L L ~ ~ ) ) W W G G v v u u 5 5 2 2 5 5 , , ",
"J J b b m m v v g g a a u u q q 8 8 y y g g . . . . . . . . . . . . . . . . m m V V L L ) ) ' ' ) ) W W C C h h e e 8 8 7 7 - - ",
"J J b b m m v v g g a a u u q q 8 8 y y g g . . . . . . . . . . . . . . . . m m V V L L ) ) ' ' ) ) W W C C h h e e 8 8 7 7 - - ",
"L L Z Z D D D D Z Z l l d d y y y y k k m m . . . . . . . . . . . . . . . . b b Z Z E E { { | | ] ] ~ ~ L L V V b b k k q q - - ",
"L L Z Z D D D D Z Z l l d d y y y y k k m m . . . . . . . . . . . . . . . . b b Z Z E E { { | | ] ] ~ ~ L L V V b b k k q q - - ",
"L L Z Z D D K K K K V V l l g g k k Z Z D D . . . . . . . . . . . . . . . . Z Z K K ` ` ........[ [ ` ` ( ( Q Q T T D D g g , , ",
"L L Z Z D D K K K K V V l l g g k k Z Z D D . . . . . . . . . . . . . . . . Z Z K K ` ` ........[ [ ` ` ( ( Q Q T T D D g g , , ",
"I I Z Z V V G G T T L L A A Z Z D D I I I I o o o o o o o o o o o o o o o o D D E E } } O.O.O.O.X.X.| | | | ....' ' T T m m y y ",
"I I Z Z V V G G T T L L A A Z Z D D I I I I o o o o o o o o o o o o o o o o D D E E } } O.O.O.O.X.X.| | | | ....' ' T T m m y y ",
"D D m m V V A A I I E E I I K K I I W W T T % % o o o o o o o o o o o o % % C C E E [ [ +.+.#.#.@.@.#.#.+.+.o.o.] ] I I v v p p ",
"D D m m V V A A I I E E I I K K I I W W T T % % o o o o o o o o o o o o % % C C E E [ [ +.+.#.#.@.@.#.#.+.+.o.o.] ] I I v v p p ",
"m m v v V V Z Z D D K K K K I I E E Q Q L L % % % % % % o o o o % % % % % % h h D D ( ( X.X.@.@.&.&.*.*.%.%.o.o.' ' G G m m e e ",
"m m v v V V Z Z D D K K K K I I E E Q Q L L % % % % % % o o o o % % % % % % h h D D ( ( X.X.@.@.&.&.*.*.%.%.o.o.' ' G G m m e e ",
"D D k k Z Z k k g g m m K K E E Q Q E E Z Z d d % % % % % % % % % % % % 3 3 e e l l G G ) ) o.o.$.$.%.%.%.%.+.+.[ [ L L V V y y ",
"D D k k Z Z k k g g m m K K E E Q Q E E Z Z d d % % % % % % % % % % % % 3 3 e e l l G G ) ) o.o.$.$.%.%.%.%.+.+.[ [ L L V V y y ",
"Q Q D D v v g g g g v v D D E E I I Z Z p p 8 8 O O O O O O O O O O O O < < e e k k A A ( ( ....o.o.o.o.X.X.| | ' ' T T V V u u ",
"Q Q D D v v g g g g v v D D E E I I Z Z p p 8 8 O O O O O O O O O O O O < < e e k k A A ( ( ....o.o.o.o.X.X.| | ' ' T T V V u u ",
"E E D D K K D D b b h h k k Z Z K K m m y y $ $ O O O O O O O O O O O O $ $ 7 7 d d G G ~ ~ ) ) ~ ~ ~ ~ ~ ~ W W ~ ~ ) ) I I p p ",
"E E D D K K D D b b h h k k Z Z K K m m y y $ $ O O O O O O O O O O O O $ $ 7 7 d d G G ~ ~ ) ) ~ ~ ~ ~ ~ ~ W W ~ ~ ) ) I I p p ",
"Y Y C C K K L L A A l l v v Z Z D D n n $ $ $ $ $ $ O O O O O O O O $ $ $ $ $ $ k k D D I I D D A A G G Y Y T T Q Q Q Q E E h h ",
"Y Y C C K K L L A A l l v v Z Z D D n n $ $ $ $ $ $ O O O O O O O O $ $ $ $ $ $ k k D D I I D D A A G G Y Y T T Q Q Q Q E E h h ",
"A A B B G G T T F F D D I I T T L L A A $ $ $ $ $ $ O O O O O O O O $ $ $ $ $ $ v v D D Z Z v v h h l l m m D D D D K K I I a a ",
"A A B B G G T T F F D D I I T T L L A A $ $ $ $ $ $ O O O O O O O O $ $ $ $ $ $ v v D D Z Z v v h h l l m m D D D D K K I I a a ",
"L L C C A A G G L L T T Q Q E E D D $ $ $ $ $ $ $ $ $ $ O O O O $ $ $ $ $ $ $ $ $ $ Z Z m m h h d d p p g g k k v v Z Z K K c c ",
"L L C C A A G G L L T T Q Q E E D D $ $ $ $ $ $ $ $ $ $ O O O O $ $ $ $ $ $ $ $ $ $ Z Z m m h h d d p p g g k k v v Z Z K K c c ",
"L L F F V V Z Z D D L L L L D D Z Z $ $ $ $ D D $ $ $ $ $ $ $ $ $ $ $ $ K K $ $ $ $ G G V V d d u u u u d d v v n n v v m m i i ",
"L L F F V V Z Z D D L L L L D D Z Z $ $ $ $ D D $ $ $ $ $ $ $ $ $ $ $ $ K K $ $ $ $ G G V V d d u u u u d d v v n n v v m m i i ",
"W W H H V V m m A A G G D D Z Z v v $ $ $ $ E E $ $ $ $ $ $ $ $ $ $ $ $ J J $ $ $ $ K K b b d d d d k k m m D D S S c c j j 6 6 ",
"W W H H V V m m A A G G D D Z Z v v $ $ $ $ E E $ $ $ $ $ $ $ $ $ $ $ $ J J $ $ $ $ K K b b d d d d k k m m D D S S c c j j 6 6 ",
"~ ~ L L A A z z Z Z D D D D Z Z m m % % % % Q Q $ $ $ $ $ $ $ $ $ $ $ $ K K % % % % A A B B V V A A K K I I P P M M c c a a 4 4 ",
"~ ~ L L A A z z Z Z D D D D Z Z m m % % % % Q Q $ $ $ $ $ $ $ $ $ $ $ $ K K % % % % A A B B V V A A K K I I P P M M c c a a 4 4 ",
"! ! T T G G z z b b G G K K D D Z Z % % % % I I $ $ $ $ $ $ $ $ $ $ $ $ H H % % % % D D K K T T W W Q Q E E G G v v x x p p 0 0 ",
"! ! T T G G z z b b G G K K D D Z Z % % % % I I $ $ $ $ $ $ $ $ $ $ $ $ H H % % % % D D K K T T W W Q Q E E G G v v x x p p 0 0 ",
"Y Y T T A A v v v v G G I I G G V V b b m m Z Z # # # # # # # # # # # # Z Z D D D D E E Q Q ^ ^ ( ( ~ ~ E E D D v v v v p p q q ",
"Y Y T T A A v v v v G G I I G G V V b b m m Z Z # # # # # # # # # # # # Z Z D D D D E E Q Q ^ ^ ( ( ~ ~ E E D D v v v v p p q q ",
"G G G G m m n n m m K K W W I I Z Z v v l l k k # # # # e e y y # # # # k k V V L L ( ( ` ` ( ( ( ( ( ( T T D D D D C C g g 5 5 ",
"G G G G m m n n m m K K W W I I Z Z v v l l k k # # # # e e y y # # # # k k V V L L ( ( ` ` ( ( ( ( ( ( T T D D D D C C g g 5 5 ",
"A A b b v v M M G G I I W W I I D D Z Z V V d d # # # # u u e e # # # # p p k k G G ~ ~ ( ( ( ( ` ` ` ` E E I I T T D D g g , , ",
"A A b b v v M M G G I I W W I I D D Z Z V V d d # # # # u u e e # # # # p p k k G G ~ ~ ( ( ( ( ` ` ` ` E E I I T T D D g g , , ",
"C C h h v v m m Z Z K K I I K K K K T T L L k k # # # # y y u u # # # # e e p p b b G G T T ( ( ] ] ` ` Q Q E E T T Z Z g g , , ",
"C C h h v v m m Z Z K K I I K K K K T T L L k k # # # # y y u u # # # # e e p p b b G G T T ( ( ] ] ` ` Q Q E E T T Z Z g g , , ",
"V V d d l l g g g g m m K K L L E E Q Q T T v v # # # # q q e e # # # # e e u u h h l l Z Z E E ( ( Q Q E E E E L L l l h h , , ",
"V V d d l l g g g g m m K K L L E E Q Q T T v v # # # # q q e e # # # # e e u u h h l l Z Z E E ( ( Q Q E E E E L L l l h h , , ",
"z z r r e e 2 2 p p b b L L ~ ~ ' ' ' ' R R b b # # # # 7 7 0 0 # # # # q q d d k k v v D D I I I I D D Z Z K K D D v v g g 2 2 ",
"z z r r e e 2 2 p p b b L L ~ ~ ' ' ' ' R R b b # # # # 7 7 0 0 # # # # q q d d k k v v D D I I I I D D Z Z K K D D v v g g 2 2 ",
"w w < < : : 9 9 V V G G L L ) )  . . . .) ) L L         9 9 8 8         7 7 p p g g v v D D D D m m m m K K E E G G k k y y 8 8 ",
"w w < < : : 9 9 V V G G L L ) )  . . . .) ) L L         9 9 8 8         7 7 p p g g v v D D D D m m m m K K E E G G k k y y 8 8 ",
"* * @ @ X X < < g g h h h h V V T T W W L L m m         7 7 8 8         > > 2 2 2 2 8 8 y y p p p p g g v v M M g g 2 2 , , @ @ ",
"* * @ @ X X < < g g h h h h V V T T W W L L m m         7 7 8 8         > > 2 2 2 2 8 8 y y p p p p g g v v M M g g 2 2 , , @ @ "
};
