/* XPM */
static char *result[] = {
/* columns rows colors chars-per-pixel */
"64 64 103 2 ",
"   c #632300",
".  c #663931",
"X  c #7E7B7B",
"o  c #8F563B",
"O  c #FF6500",
"+  c #807E7E",
"@  c #817F7F",
"#  c #5C877F",
"$  c #FF803B",
"%  c #D9A066",
"&  c #818080",
"*  c #838080",
"=  c #828181",
"-  c #838181",
";  c #838282",
":  c #848282",
">  c #848383",
",  c #858383",
"<  c #868383",
"1  c #858484",
"2  c #868484",
"3  c #878484",
"4  c #868585",
"5  c #878585",
"6  c #878686",
"7  c #888585",
"8  c #888686",
"9  c #898686",
"0  c #888787",
"q  c #898787",
"w  c #8A8686",
"e  c #8A8787",
"r  c #8B8787",
"t  c #898888",
"y  c #8A8888",
"u  c #8B8888",
"i  c #8A8989",
"p  c #8B8989",
"a  c #8B8A8A",
"s  c #8B8B8B",
"d  c #8C8989",
"f  c #8D8989",
"g  c #8C8A8A",
"h  c #8D8A8A",
"j  c #8C8B8B",
"k  c #8D8B8B",
"l  c #8E8B8B",
"z  c #8F8B8B",
"x  c gray55",
"c  c #8D8C8C",
"v  c #8E8C8C",
"b  c #8F8C8C",
"n  c #8E8D8D",
"m  c #8F8D8D",
"M  c #8F8E8E",
"N  c #908C8C",
"B  c #908D8D",
"V  c #918D8D",
"C  c #908E8E",
"Z  c #918E8E",
"A  c #908F8F",
"S  c #918F8F",
"D  c #928E8E",
"F  c #928F8F",
"G  c #938F8F",
"H  c #919090",
"J  c #929090",
"K  c #939090",
"L  c #929191",
"P  c #939191",
"I  c #939292",
"U  c #949090",
"Y  c #949191",
"T  c #959191",
"R  c #949292",
"E  c #959292",
"W  c #959393",
"Q  c #969292",
"!  c #969393",
"~  c #959494",
"^  c #959595",
"/  c #969494",
"(  c #979494",
")  c #969595",
"_  c #979595",
"`  c #989595",
"'  c #989696",
"]  c #999696",
"[  c #989797",
"{  c #999797",
"}  c #9A9797",
"|  c #9B9797",
" . c #9A9898",
".. c #9B9898",
"X. c #9C9999",
"o. c #9C9A9A",
"O. c #9D9A9A",
"+. c #9D9B9B",
"@. c #9E9B9B",
"#. c #9E9C9C",
"$. c #9F9C9C",
"%. c #9F9D9D",
"&. c #A09D9D",
/* pixels */
"/ / J J C C m m m m n n a a a a c c A A L L ^ ^ ^ ^ ) ) / / P P a a y y y y g g C C I I W W R R J J B B k k g g a a q q , , @ @ ",
"/ / J J C C m m m m n n a a a a c c A A L L ^ ^ ^ ^ ) ) / / P P a a y y y y g g C C I I W W R R J J B B k k g g a a q q , , @ @ ",
"L L C C v v q q q q 0 0 4 4 1 1 0 0 c c M M n n M M A A S S B B t t 0 0 i i g g C C P P R R F F B B m m v v c c g g 9 9 , , + + ",
"L L C C v v q q q q 0 0 4 4 1 1 0 0 c c M M n n M M A A S S B B t t 0 0 i i g g C C P P R R F F B B m m v v c c g g 9 9 , , + + ",
"v v j j y y 3 3 , , 4 4 4 4 5 5 y y c c n n k k a a s s c c M M a a p p k k k k F F W W ! ! E E E E E E Y Y J J B B e e > > @ @ ",
"v v j j y y 3 3 , , 4 4 4 4 5 5 y y c c n n k k a a s s c c M M a a p p k k k k F F W W ! ! E E E E E E Y Y J J B B e e > > @ @ ",
"j j q q 5 5 3 3 , , , , 2 2 2 2 8 8 p p c c g g i i c c n n c c M M m m v v v v B B P P W W ` ` ' ' _ _ ! ! R R C C g g 8 8 - - ",
"j j q q 5 5 3 3 , , , , 2 2 2 2 8 8 p p c c g g i i c c n n c c M M m m v v v v B B P P W W ` ` ' ' _ _ ! ! R R C C g g 8 8 - - ",
"v v q q , , , , > > ; ; ; ; : : 5 5 q q y y i i a a x x n n M M C C S S m m v v S S J J E E ' ' ] ] ( ( P P m m k k h h f f 8 8 ",
"v v q q , , , , > > ; ; ; ; : : 5 5 q q y y i i a a x x n n M M C C S S m m v v S S J J E E ' ' ] ] ( ( P P m m k k h h f f 8 8 ",
"S S y y 2 2 2 2 > > = = & & - - 2 2 8 8 8 8 t t . . . . . . . . . . . . J J J J R R R R W W ( ( ! ! K K v v y y q q y y g g y y ",
"S S y y 2 2 2 2 > > = = & & - - 2 2 8 8 8 8 t t . . . . . . . . . . . . J J J J R R R R W W ( ( ! ! K K v v y y q q y y g g y y ",
"C C y y q q 8 8 2 2 - - - - : : 4 4 8 8 q q . . . . . . . . . . . . . . . . R R R R R R / / ! ! P P C C j j q q 5 5 5 5 0 0 8 8 ",
"C C y y q q 8 8 2 2 - - - - : : 4 4 8 8 q q . . . . . . . . . . . . . . . . R R R R R R / / ! ! P P C C j j q q 5 5 5 5 0 0 8 8 ",
"M M h h k k p p q q 5 5 5 5 5 5 5 5 8 8 y y . . . . . . . . . . . . . . . . P P F F K K ! ! ( ( E E F F v v u u 5 5 2 2 5 5 , , ",
"M M h h k k p p q q 5 5 5 5 5 5 5 5 8 8 y y . . . . . . . . . . . . . . . . P P F F K K ! ! ( ( E E F F v v u u 5 5 2 2 5 5 , , ",
"H H b b m m v v g g a a u u q q 8 8 y y g g . . . . . . . . . . . . . . . . m m B B K K ( ( ` ` ( ( E E V V h h e e 8 8 7 7 - - ",
"H H b b m m v v g g a a u u q q 8 8 y y g g . . . . . . . . . . . . . . . . m m B B K K ( ( ` ` ( ( E E V V h h e e 8 8 7 7 - - ",
"K K C C S S S S C C l l d d y y y y k k m m . . . . . . . . . . . . . . . . b b C C R R [ [ } } ' ' ! ! K K B B b b k k q q - - ",
"K K C C S S S S C C l l d d y y y y k k m m . . . . . . . . . . . . . . . . b b C C R R [ [ } } ' ' ! ! K K B B b b k k q q - - ",
"K K C C S S J J J J B B l l g g k k C C S S o o o o o o o o o o o o o o o o C C J J _ _  . . . .] ] _ _ / / W W Y Y S S g g , , ",
"K K C C S S J J J J B B l l g g k k C C S S o o o o o o o o o o o o o o o o C C J J _ _  . . . .] ] _ _ / / W W Y Y S S g g , , ",
"P P C C B B F F Y Y K K Z Z C C S S P P P P % % o o o o o o o o o o o o % % S S R R { { o.o.o.o.....} } } }  . .` ` Y Y m m y y ",
"P P C C B B F F Y Y K K Z Z C C S S P P P P % % o o o o o o o o o o o o % % S S R R { { o.o.o.o.....} } } }  . .` ` Y Y m m y y ",
"S S m m B B Z Z P P R R P P J J P P E E Y Y % % % % % % o o o o % % % % % % V V R R ] ] O.O.@.@.+.+.@.@.O.O.X.X.' ' P P v v p p ",
"S S m m B B Z Z P P R R P P J J P P E E Y Y % % % % % % o o o o % % % % % % V V R R ] ] O.O.@.@.+.+.@.@.O.O.X.X.' ' P P v v p p ",
"m m v v B B C C S S J J J J P P R R W W K K v v % % % % % % % % % % % % 9 9 h h S S / / ....+.+.%.%.&.&.$.$.X.X.` ` F F m m e e ",
"m m v v B B C C S S J J J J P P R R W W K K v v % % % % % % % % % % % % 9 9 h h S S / / ....+.+.%.%.&.&.$.$.X.X.` ` F F m m e e ",
"S S k k C C k k g g m m J J R R W W R R C C $ $ O O O O O O O O O O O O $ $ e e l l F F ( ( X.X.#.#.$.$.$.$.O.O.] ] K K B B y y ",
"S S k k C C k k g g m m J J R R W W R R C C $ $ O O O O O O O O O O O O $ $ e e l l F F ( ( X.X.#.#.$.$.$.$.O.O.] ] K K B B y y ",
"W W S S v v g g g g v v S S R R P P C C $ $ $ $ O O O O O O O O O O O O $ $ $ $ k k Z Z / /  . .X.X.X.X.....} } ` ` Y Y B B u u ",
"W W S S v v g g g g v v S S R R P P C C $ $ $ $ O O O O O O O O O O O O $ $ $ $ k k Z Z / /  . .X.X.X.X.....} } ` ` Y Y B B u u ",
"R R S S J J S S b b h h k k C C J J m m $ $ $ $ $ $ O O O O O O O O $ $ $ $ $ $ d d F F ! ! ( ( ! ! ! ! ! ! E E ! ! ( ( P P p p ",
"R R S S J J S S b b h h k k C C J J m m $ $ $ $ $ $ O O O O O O O O $ $ $ $ $ $ d d F F ! ! ( ( ! ! ! ! ! ! E E ! ! ( ( P P p p ",
"U U V V J J K K Z Z l l v v C C S S $ $ $ $ $ $ $ $ O O O O O O O O $ $ $ $ $ $ $ $ S S P P S S Z Z F F U U Y Y W W W W R R h h ",
"U U V V J J K K Z Z l l v v C C S S $ $ $ $ $ $ $ $ O O O O O O O O $ $ $ $ $ $ $ $ S S P P S S Z Z F F U U Y Y W W W W R R h h ",
"Z Z N N F F Y Y D D S S P P Y Y K K $ $ $ $ l l $ $ $ $ O O O O $ $ $ $ k k $ $ $ $ S S C C v v h h l l m m S S S S J J P P a a ",
"Z Z N N F F Y Y D D S S P P Y Y K K $ $ $ $ l l $ $ $ $ O O O O $ $ $ $ k k $ $ $ $ S S C C v v h h l l m m S S S S J J P P a a ",
"K K V V Z Z F F K K Y Y W W R R S S $ $ $ $ B B $ $ $ $ $ $ $ $ $ $ $ $ S S $ $ $ $ C C m m h h d d p p g g k k v v C C J J c c ",
"K K V V Z Z F F K K Y Y W W R R S S $ $ $ $ B B $ $ $ $ $ $ $ $ $ $ $ $ S S $ $ $ $ C C m m h h d d p p g g k k v v C C J J c c ",
"K K D D B B C C S S K K K K S S C C % % % % S S $ $ $ $ $ $ $ $ $ $ $ $ J J % % % % F F B B d d u u u u d d v v n n v v m m i i ",
"K K D D B B C C S S K K K K S S C C % % % % S S $ $ $ $ $ $ $ $ $ $ $ $ J J % % % % F F B B d d u u u u d d v v n n v v m m i i ",
"E E G G B B m m Z Z F F S S C C v v % % % % R R $ $ $ $ $ $ $ $ $ $ $ $ H H % % % % J J b b d d d d k k m m S S A A c c j j 6 6 ",
"E E G G B B m m Z Z F F S S C C v v % % % % R R $ $ $ $ $ $ $ $ $ $ $ $ H H % % % % J J b b d d d d k k m m S S A A c c j j 6 6 ",
"! ! K K Z Z z z C C S S S S C C m m C C P P W W $ $ $ $ $ $ $ $ $ $ $ $ J J K K P P Z Z N N B B Z Z J J P P L L M M c c a a 4 4 ",
"! ! K K Z Z z z C C S S S S C C m m C C P P W W $ $ $ $ $ $ $ $ $ $ $ $ J J K K P P Z Z N N B B Z Z J J P P L L M M c c a a 4 4 ",
"Q Q Y Y F F z z b b F F J J S S C C C C J J P P $ $ $ $ $ $ $ $ $ $ $ $ G G F F S S S S J J Y Y E E W W R R F F v v x x p p 0 0 ",
"Q Q Y Y F F z z b b F F J J S S C C C C J J P P $ $ $ $ $ $ $ $ $ $ $ $ G G F F S S S S J J Y Y E E W W R R F F v v x x p p 0 0 ",
"U U Y Y Z Z v v v v F F P P F F B B b b m m C C # # # # # # # # # # # # C C S S S S R R W W ~ ~ / / ! ! R R S S v v v v p p q q ",
"U U Y Y Z Z v v v v F F P P F F B B b b m m C C # # # # # # # # # # # # C C S S S S R R W W ~ ~ / / ! ! R R S S v v v v p p q q ",
"F F F F m m n n m m J J E E P P C C v v l l k k # # # # e e y y # # # # k k B B K K / / _ _ / / / / / / Y Y S S S S V V g g 5 5 ",
"F F F F m m n n m m J J E E P P C C v v l l k k # # # # e e y y # # # # k k B B K K / / _ _ / / / / / / Y Y S S S S V V g g 5 5 ",
"Z Z b b v v M M F F P P E E P P S S C C B B d d # # # # u u e e # # # # p p k k F F ! ! / / / / _ _ _ _ R R P P Y Y S S g g , , ",
"Z Z b b v v M M F F P P E E P P S S C C B B d d # # # # u u e e # # # # p p k k F F ! ! / / / / _ _ _ _ R R P P Y Y S S g g , , ",
"V V h h v v m m C C J J P P J J J J Y Y K K k k # # # # y y u u # # # # e e p p b b F F Y Y / / ' ' _ _ W W R R Y Y C C g g , , ",
"V V h h v v m m C C J J P P J J J J Y Y K K k k # # # # y y u u # # # # e e p p b b F F Y Y / / ' ' _ _ W W R R Y Y C C g g , , ",
"B B d d l l g g g g m m J J K K R R W W Y Y v v # # # # q q e e # # # # e e u u h h l l C C R R / / W W R R R R K K l l h h , , ",
"B B d d l l g g g g m m J J K K R R W W Y Y v v # # # # q q e e # # # # e e u u h h l l C C R R / / W W R R R R K K l l h h , , ",
"z z r r e e 2 2 p p b b K K ! ! ` ` ` ` T T b b # # # # 7 7 0 0 # # # # q q d d k k v v S S P P P P S S C C J J S S v v g g 2 2 ",
"z z r r e e 2 2 p p b b K K ! ! ` ` ` ` T T b b # # # # 7 7 0 0 # # # # q q d d k k v v S S P P P P S S C C J J S S v v g g 2 2 ",
"w w < < : : 9 9 B B F F K K ( ( | | | | ( ( K K         9 9 8 8         7 7 p p g g v v S S S S m m m m J J R R F F k k y y 8 8 ",
"w w < < : : 9 9 B B F F K K ( ( | | | | ( ( K K         9 9 8 8         7 7 p p g g v v S S S S m m m m J J R R F F k k y y 8 8 ",
"* * @ @ X X < < g g h h h h B B Y Y E E K K m m         7 7 8 8         > > 2 2 2 2 8 8 y y p p p p g g v v M M g g 2 2 , , @ @ ",
"* * @ @ X X < < g g h h h h B B Y Y E E K K m m         7 7 8 8         > > 2 2 2 2 8 8 y y p p p p g g v v M M g g 2 2 , , @ @ "
};
