/* XPM */
static char *_ad78f06860643e0f6b550c5183206bfyon3qzBHxLL06Kcm[] = {
/* columns rows colors chars-per-pixel */
"64 64 150 2 ",
"   c #21263F",
".  c #22283E",
"X  c #23283F",
"o  c #212740",
"O  c #232940",
"+  c #252B43",
"@  c #252B44",
"#  c #252C44",
"$  c #2B2B4B",
"%  c #2C2B4B",
"&  c #2C2C4C",
"*  c #2E2D4D",
"=  c #2B324D",
"-  c #2A314E",
";  c #30304F",
":  c #2E3653",
">  c #2E3354",
",  c #2F3754",
"<  c #2F3556",
"1  c #303556",
"2  c #303957",
"3  c #313A58",
"4  c #343A59",
"5  c #343A5A",
"6  c #333C5C",
"7  c #343D5E",
"8  c #353E5E",
"9  c #3A3A59",
"0  c #383F5D",
"q  c #363F60",
"w  c #403F5E",
"e  c #374163",
"r  c #374164",
"t  c #384263",
"y  c #3E4263",
"u  c #384264",
"i  c #394365",
"p  c #394366",
"a  c #3A4467",
"s  c #364369",
"d  c #3A4568",
"f  c #3B4569",
"g  c #39456B",
"h  c #39466B",
"j  c #3D4769",
"k  c #3F4A6B",
"l  c #3F4A6C",
"z  c #404464",
"x  c #414A62",
"c  c #444B69",
"v  c #434C68",
"b  c #404B6C",
"n  c #424D6E",
"m  c #424D6F",
"M  c #495468",
"N  c #465272",
"B  c #425376",
"V  c #425476",
"C  c #435477",
"Z  c #4B5771",
"A  c #4D5471",
"S  c #4E5471",
"D  c #4D5974",
"F  c #4F5B7A",
"G  c #525F7D",
"H  c #53607E",
"J  c #7E7B7B",
"K  c #C24B2D",
"L  c #817F7F",
"P  c #006FA4",
"I  c #5B6885",
"U  c #5B6986",
"Y  c #5C6A87",
"T  c #5C6B87",
"R  c #5D6B88",
"E  c #5E6D89",
"W  c #5E6C8A",
"Q  c #5F6E8A",
"!  c #5A738A",
"~  c #636E84",
"^  c #636F85",
"/  c #646F85",
"(  c #647087",
")  c #65738F",
"_  c #787886",
"`  c #697692",
"'  c #6A7793",
"]  c #7F8EA8",
"[  c #838080",
"{  c #838181",
"}  c #848383",
"|  c #858383",
" . c #868383",
".. c #868484",
"X. c #888585",
"o. c #888787",
"O. c #898787",
"+. c #8A8686",
"@. c #8A8787",
"#. c #8B8787",
"$. c #8B8A8A",
"%. c #8C8989",
"&. c #8C8A8A",
"*. c #8D8B8B",
"=. c #8F8B8B",
"-. c #8E8D8D",
";. c #8F8D8D",
":. c #8F8E8E",
">. c #908C8C",
",. c #908D8D",
"<. c #918D8D",
"1. c #908E8E",
"2. c #908F8F",
"3. c #928F8F",
"4. c #878C9A",
"5. c #929090",
"6. c #939090",
"7. c #959191",
"8. c #949292",
"9. c #959292",
"0. c #959393",
"q. c #969393",
"w. c #959494",
"e. c #969494",
"r. c #979494",
"t. c #989595",
"y. c #989696",
"u. c #9B9797",
"i. c #8B9BB4",
"p. c #8B9BB5",
"a. c #8B9CB4",
"s. c #8C9CB6",
"d. c #8D9DB7",
"f. c #8D9EB8",
"g. c #B3B7BE",
"h. c #BAC0C8",
"j. c #D2D7DC",
"k. c #DCE0E4",
"l. c #DFE3E5",
"z. c #E7EBEC",
"x. c #E9EDEF",
"c. c #EAEFF0",
"v. c #ECF0F1",
"b. c #EDF1F2",
"n. c #EFF3F3",
"m. c #F0F4F4",
"M. c #F1F4F4",
"N. c #F0F4F5",
"B. c #F3F7F7",
"V. c #F4F8F8",
/* pixels */
"e.e.5.5.1.1.;.;.;.;.;.;.$.$.$.$.} $.;.:.- - = - - - - - - - - - - - - - - - - - & - - - l C 8.8.5.5.5.;.%.$.$.%.%.$.%...} } L L ",
"e.e.5.5.1.1.;.;.;.;.;.;.$.$.$.$.] ] :.:.= - = - - - - - = = - - - - - - - - - - > > - - M M 8.8.5.5.>.;.;.;.%.;.$.$.o.o.} } L L ",
"p.p.p.p.p.p.i.p.p.p.a.a.p.p.p.p.p.p.p.p.l n v.c.z.c.z.z.x.x.c.c.x.x.x.x.x.x.x.x.c.c.l l / / i.s.p.p.p.p.p.p.p.p.p.p.p.p.p.p.i.i.",
"p.p.p.p.p.p.i.p.p.p.a.a.p.p.p.p.p.p.p.p.l V c.c.c.v.z.z.x.x.x.c.x.x.x.x.x.x.x.x.c.c.q g / / i.i.p.p.p.p.p.p.p.p.p.p.p.p.p.s.i.s.",
"p.p.p.p.p.p.p.p.p.p.p.p.p.p.p.p.p.p.p.p.h s x.x.V.V.V.b.b.m.V.b.V.V.m.m.v.b.V.V.x.x.q q ~ ~ p.p.p.p.p.p.p.p.p.p.p.p.p.p.p.p.p.p.",
"p.p.p.p.p.p.p.p.p.p.p.p.p.p.p.p.p.p.p.p.s s x.x.V.V.b.b.b.m.m.b.V.V.b.v.b.m.V.V.c.c.q q ( ( p.p.p.p.p.p.p.p.p.p.p.p.p.p.p.p.p.p.",
"p.p.p.p.p.p.p.p.p.p.p.p.p.p.p.p.p.p.a.f.h h z.z.h.h.l.l.b.v.k.k.g.g.v.v.v.c.b.m.c.c.s q ~ ~ p.p.p.p.p.p.p.p.p.p.p.p.p.p.p.p.p.p.",
"p.p.p.p.p.p.p.p.p.p.p.p.p.p.p.p.p.a.a.f.h h z.z.h.h.l.l.b.v.k.k.g.g.v.v.v.v.B.m.c.c.q q ~ ( p.p.p.p.p.p.p.p.p.p.p.p.p.p.p.p.p.p.",
"p.p.p.p.p.p.p.p.p.p.p.p.p.p.p.p.p.p.p.p.s s z.z.v.v.j.j.b.c.j.j.4.4.b.v.B.x.m.m.x.x.a t ( ~ p.p.p.p.p.p.p.p.p.p.p.p.p.p.p.p.p.p.",
"p.p.p.p.p.p.p.p.p.p.p.p.p.p.p.p.p.p.p.p.g g z.z.v.v.j.j.v.b.j.j.4.4.v.v.x.x.B.m.x.x.t a ( ( p.p.p.p.p.p.p.p.p.p.p.p.p.p.p.p.p.p.",
"p.p.p.p.p.p.p.p.p.p.p.p.p.p.p.p.p.p.p.p.g h x.z.v.v.v.v.v.v.v.b.b.b.c.c.! ! _ _ c.c.t q ( ( p.p.p.p.p.p.p.p.p.p.p.p.p.p.p.p.p.p.",
"p.p.p.p.p.p.p.p.p.p.p.p.p.p.p.p.p.p.p.p.g h x.x.v.v.v.v.v.v.b.v.b.b.c.c.! R _ _ c.c.q a ( ( p.p.p.p.p.p.p.p.p.p.p.p.p.p.p.p.p.p.",
"p.p.p.p.p.p.p.p.p.p.p.p.p.p.p.p.p.p.p.p.s s c.c.N.n.V.n.B.n.n.N.V.m.B.v.K K P P c.x.q h ( ) p.p.p.p.p.p.p.p.p.p.p.p.p.p.p.p.p.p.",
"p.p.p.p.p.p.p.p.p.p.p.p.p.p.p.p.p.p.p.p.s s c.l.n.V.b.V.V.V.V.n.b.V.c.x.K K P P x.x.h q ( ( p.p.p.p.p.p.p.p.p.p.p.p.p.p.p.p.p.p.",
"p.p.p.p.p.p.p.p.p.p.p.p.p.p.p.p.p.p.p.f.I f h U U l C l C C C V b b I U I s I z B V C C ~ ~ p.p.p.p.p.p.p.p.p.p.p.p.p.p.p.p.p.p.",
"p.p.p.p.p.p.p.p.p.p.p.p.p.p.p.p.p.p.p.] s U U l l C C C C l C k V V b k h I s P B B C C ~ ~ p.p.p.p.p.p.p.p.p.p.p.p.p.p.p.p.p.p.",
"p.p.p.p.p.p.p.p.p.p.p.p.p.p.p.p.p.p.p.p.e p r e p t q r r p e e e e a u a e e e p t t t ` ` p.p.p.p.p.p.p.p.p.p.p.p.p.p.p.p.p.p.",
"p.p.p.p.p.p.p.p.p.p.p.p.p.p.p.p.p.p.p.p.r r e e p p p q p r e e e e e a e a r a e e p p ` ` p.p.p.p.p.p.p.p.p.p.p.p.p.p.p.p.p.p.",
"p.p.p.p.p.p.p.p.p.p.p.p.p.p.p.p.p.p.p.p.. . , , j p < , a f , : , : f a 2 2 f a 2 2 X X ` ` p.p.p.p.p.p.p.p.p.p.p.p.p.p.p.p.p.p.",
"p.p.p.p.p.p.p.p.p.p.p.p.p.p.p.p.p.p.p.p..   , , p j , , f a , : : : a a 3 2 a a 2 2 o @ ` ` p.p.p.p.p.p.p.p.p.p.p.p.p.p.p.p.p.p.",
"p.p.p.p.p.p.p.p.p.p.p.p.p.p.p.p.s.i.i.i.t t p e @ @ 8 8 1 : t t , , q e = = 4 3 1 , 8 7 ` ` p.p.p.p.p.p.p.p.p.p.p.p.p.p.p.p.p.p.",
"p.p.p.p.p.p.p.p.p.p.p.p.p.p.p.p.p.i.i.i.p e p t @ @ 8 8 : 1 t e , , e q = - 4 2 , , 7 7 ` ` p.p.p.p.p.p.p.p.p.p.p.p.p.p.p.p.p.p.",
"p.p.p.p.p.p.p.p.p.p.p.p.p.p.p.p.p.p.s.a.p p , 1 p f , : p j < , p p , , f p 1 1 p p 2 3 ` ` p.p.p.p.p.p.p.p.p.p.p.p.p.p.p.p.p.p.",
"p.p.p.p.p.p.p.p.p.p.p.p.p.p.p.p.p.p.i.i.t p 1 1 a p , : j p , , p r , : p p : 1 t r 3 3 ` ` p.p.p.p.p.p.p.p.p.p.p.p.p.p.p.p.p.p.",
"p.p.p.p.p.p.p.p.p.p.p.p.p.p.p.p.p.p.p.p.f u f f a a a a + + + + + + + + p p j p a a a a ` ` p.p.p.p.p.p.p.p.p.p.p.p.p.p.p.p.p.p.",
"p.p.p.p.p.p.p.p.p.p.p.p.p.p.p.p.p.p.p.p.u a f u a a a a + + + + + + + + p f p p a a a a ` ` p.p.p.p.p.p.p.p.p.p.p.p.p.p.p.p.p.p.",
"p.p.p.p.p.p.p.p.p.p.p.p.p.p.p.p.p.p.p.p.a f a f d d d d @ # # # + + + + f a k p f f h a ` ` p.p.p.p.p.p.p.p.p.p.p.p.p.p.p.p.p.p.",
"p.p.p.p.p.p.p.p.p.p.p.p.p.p.p.p.p.p.p.p.f a f f d d d d @ @ @ O + + + + f f a f f f a a ` ` p.p.p.p.p.p.p.p.p.p.p.p.p.p.p.p.p.p.",
"p.p.p.p.p.p.p.p.p.p.p.p.p.p.p.p.p.p.p.p.o o o o O o o o o o           o O o o o o o o o ( ( p.p.p.p.p.p.p.p.p.p.p.p.p.p.p.p.p.p.",
"p.p.p.p.p.p.p.p.p.p.p.p.p.p.p.p.p.p.p.p.o o o o o o o o o o   o       o O o o o o o o o ( ( p.p.p.p.p.p.p.p.p.p.p.p.p.p.p.p.p.p.",
"s.f.s.p.p.p.p.p.p.p.p.p.p.p.p.p.p.p.s.s.f.f.f.f.f.f.f.f.f.f.f.f.f.f.f.f.f.f.f.f.f.f.f.f.s.s.p.p.p.p.p.p.p.p.p.p.p.p.p.p.p.p.p.p.",
"s.s.s.p.p.p.p.p.p.p.p.p.p.p.p.p.p.p.s.s.f.f.f.f.f.f.f.f.f.f.f.f.f.f.f.f.f.f.f.f.f.f.f.s.s.s.p.p.p.p.p.p.p.p.p.p.p.p.p.p.p.p.p.p.",
") ) ] ] ] ] ] ] ] ] ] ] ] ] ] ] ] ] ] ] ] ] ] ] ] ] ] ] ] ] ] ] ] ] ] ] ] ] ] ] ] ] ] ] ] ] ] ] ] ] ] ] ] ] ] ] ] ] ] ] ] ] ] ] ",
") ) ] ] ] ] ] 4.] ] ] ] ] ] ] 4.] ] ] ] ] ] ] ] ] ] ] ] ] ] ] 4.] ] ] ] ] ] ] ] ] ] ] ] ] ] ] ] ] ] ] ] ] 4.] ] ] ] ] ] ] ] ] ] ",
"I I U I Y Y I I I I U U Y U I I U U U U U U U U U U U U W Y I I U U U U U U U U U U U U U U U U U U U U I I I I Y U U U I I U I ",
"I I U U U Y I I I I U U U U I I U U U U U U I I U U U U U Y R I U U U U U U U U U U U U U U U U U U I I I I I I U U U U I I I I ",
"q w * * * * * * & * * * * * ; ; 1.6.1.1.%.>.;.;.$.$.$.%.o.o. . . .o.o.$.$.*.*.;.>.>.5.:.1.1.>.%.0 w % % % % % % % % * % & * 9 9 ",
"w w % * * % * * & * * * * * ; ; 5.6.1.5.>.%.;.%.$.$.$.o.o...}  .o.o.%.$.$.*.;.*.1.%.;.5.1.1.>.%.w w $ $ * * % % & % * % & * 9 9 ",
"A A 1 1 1 1 0 8 c c 6 6 1 1 5 4 1.1.1.1.1.>.1.;.@ O @ @ + + + + + + + + + + # # + + 1.1.1.;.;.%.S S 1 < 1 1 y y y y < < 1 1 b c ",
"A A < 1 1 1 0 5 c c 5 6 1 1 5 3 1.5.1.1.>.1.>.;.@ @ @ @ + + + + + + + + + + + + + @ 1.1.;.;.;.%.S S 1 < 1 1 y y z y < 1 1 1 c c ",
"U U a a a a a a s r f a a a l l 1.1.1.5.1.5.1.5.+ + + + + + + + + + + + + + + + + + 1.6.>.1.%.%.R I a p j j f l g b k j j j G G ",
"U R g q a a g q f r f p a a k k 1.1.5.1.5.1.5.1.+ + + + + + + + + + + + + + + + + + 6.1.1.1.%.%.R E a a j k f f f f f f j j H H ",
"R U q q q q q q r r r r q r k j 1.1.1.1.5.5.5.r.+ + + + + + + + + + + + + + + + + + 9.1.>.%.%.%.E U b b n m l l c l n m m m H H ",
"U R g q g a q g r r r r r r j j >.%.>.>.5.5.9.5.+ + + # + + + + + + + + + + + + + + 1.9.>.>.%.%.R I b b n b l l c l m m m m H H ",
"U U R W W W W ! W W ) R ! W R R ;.;.1.1.5.r.8.8.O O O O . + + + + + + + + + X X + X 1.1.1.>.>.1.R R p e p f F F F G e e j p G G ",
"U U W R W W W ( W ~ R R ) W W ( ;.1.1.1.5.5.r.8.. # O O . X + + + + + +   + o @ X X 1.5.>.>.>.;.R R r e r p F F G G p e p j G G ",
"U U 9.9.5.5.5.;.>.;.:.5.:.5.5.1.;.1.1.1.5.5.a f f f f f b a + X + + + + 8 q j f j f p p 5.5.9.9.E R f f k k k k b k k k b v H H ",
"U U 9.9.>.>.=.;.>.1.5.5.5.5.1.5.1.1.1.;.5.5.f p f f f f a f X + + + + + q t a f a f p f 6.6.9.5.U R f k k k k k k k k b b b H H ",
"U U 6.9.5.;.;.;.=.;.5.5.5.5.5.5.1.1.>.1.1.>.p p p a a a p j + X + + + + q 8 p f k a d u e.e.e.e.w.w.t.9.5.0.6.;.;.;.%.1.%.*.I R ",
"U U 9.6.;.5.$.;.=.$.5.5.5.5.5.5.1.1.>.%.1.%.p j a a a a p p . + + + + + q 8 j p e d s d e.5.w.e.w.w.9.t.0.0.6.6.;.$.1.$.*...U U ",
"5.6.5.5.$.:.;.:.5.;.5.5.9.9.6.6.1.1.%.1.%.1.t a a a a a p j X + + + + + q q k e a a f u e.e.e.e.9.t.w.w.5.5.2.6.;.2.;.;.%.%...o.",
"<.>.5.5.;.;.;.;.$.5.5.5.9.6.6.6.1.1.5.%.1.%.j p a a a a p p + X + + + + q q a r a f a f e.e.e.e.w.w.w.t.6.6.6.2.6.6.;.2.%.%.o...",
"<.5.>.<.;.;.:.:.5.5.8.5.9.9.9.6.1.9.1.1.1.1.q q p t p q p q X + + + + + 3 8 e e e e t t e.e.e.e.t.t.e.y.e.5.6.w.9.9.6.6.*.*.....",
";.<.>.;.$.;.$.5.5.5.5.8.9.9.5.9.1.1.1.1.1.1.q q t 8 q t p q +   + + + + 7 3 e e t t t t e.e.e.e.t.t.t.t.5.e.6.6.5.6.1.1.$.%.} } ",
"<.<.<.X.;.;.>.=.;.>.5.5.9.5.5.5.6.6.6.9.1.1.+ + + + + + + + + + + + + + + + + + + + # # 5.0.e.e.t.t.w.t.e.w.6.w.w.9.1.1.%.%.} } ",
"<.<.%.;.=.$.;.5.;.5.5.5.5.9.5.5.5.1.9.9.3.9.+ + + + + + + + + + + + + + + + + + + + + # 0.5.e.e.t.t.t.w.e.e.w.6.5.6.1.1.*.%.} } ",
">.>.=.%.;.$.;.+.=.$.5.=.5.5.5.5.5.9.e.9.9.5.%.;.D D o.o.o.o.%.o...%.o.o.#.#.x x Z Z *.*.1.>.5.e.w.w.w.6.5.e.5.e.6.6.1.%.%.%.....",
"<.5.X.+.=.=.=.;.$.%.=.;.5.5.5.5.9.9.e.9.5.9.1.%.D D %.%.o.o.o.%.#.o.o.%.o.o.x x Z Z *.>.*.6.0.0.t.w.w.w.e.5.e.5.6.5.%.*.*.>.} ..",
"<.;.X.%.X.%.} } X.;.$.;.6.6.6.9.t.t.t.t.9.9.>.>.I I #.o.o. .%. .o. .o. .o.%.%.%.U U %.;.6.6.6.6.6.6.2.2.;.2.2.5.;.6.1.$.%.%.} } ",
"=.;.%.X.%.X.X.X.;.X.;.;.6.9.9.r.t.t.t.u.9.9.>.>.R I o.#. .#.} %.o.o.o.#.o.o.%.%.U U ;.;.6.2.2.6.6.6.2.6.6.;.6.6.6.;.%.6.*.%.} X.",
"X.+.X.[ } [ %.X.;.<.<.5.6.6.r.r.u.u.u.u.r.r.1.9.I I %.;.#.o.#.o. . .o. . .#.%.%.I I 1.$.1.6.6.1.6.;.;.;.6.2.6.w.1.6.%.>.%.o.X.o.",
"X.X.[ X.[ L X.X.<.<.5.5.6.6.r.r.u.t.u.u.r.r.9.1.I R ;.%. .o. .#.o.#. . .o. .o.%.I I 1.;.6.1.6.1.*.;.;.;.6.;.w.6.6.6.%.>.o.%.#.X.",
"{ L { L J J } } %.;.X.>.X.=.5.;.9.5.5.9.3.9.1.;.N N ..$.o. .} o.o.} } L  .}  .o.N N X...$.X.*.$.$.$.*.$.;.;.6.;.%.$.....} } [ L ",
"L { L L J L X.X.X.$.=.$.;.;.>.>.5.9.9.9.9.1.1.1.N N #.o.o. .%.%. .o.L L }  . .} N N o...$.$...$.$.$.$.$.;.;.;.;.%.$.....} } L L "
};
